G04 #@! TF.GenerationSoftware,KiCad,Pcbnew,(5.0.1)-3*
G04 #@! TF.CreationDate,2019-02-16T21:55:47-05:00*
G04 #@! TF.ProjectId,Zprobe Adaptor,5A70726F62652041646170746F722E6B,rev?*
G04 #@! TF.SameCoordinates,Original*
G04 #@! TF.FileFunction,Soldermask,Bot*
G04 #@! TF.FilePolarity,Negative*
%FSLAX46Y46*%
G04 Gerber Fmt 4.6, Leading zero omitted, Abs format (unit mm)*
G04 Created by KiCad (PCBNEW (5.0.1)-3) date 2/16/2019 9:55:47 PM*
%MOMM*%
%LPD*%
G01*
G04 APERTURE LIST*
%ADD10C,0.100000*%
G04 APERTURE END LIST*
D10*
G36*
X120375256Y-104391298D02*
X120481579Y-104412447D01*
X120782042Y-104536903D01*
X121048852Y-104715180D01*
X121052454Y-104717587D01*
X121282413Y-104947546D01*
X121463098Y-105217960D01*
X121587553Y-105518422D01*
X121651000Y-105837389D01*
X121651000Y-106162611D01*
X121587553Y-106481578D01*
X121463098Y-106782040D01*
X121282413Y-107052454D01*
X121052454Y-107282413D01*
X121052451Y-107282415D01*
X120782042Y-107463097D01*
X120481579Y-107587553D01*
X120375256Y-107608702D01*
X120162611Y-107651000D01*
X119837389Y-107651000D01*
X119624744Y-107608702D01*
X119518421Y-107587553D01*
X119217958Y-107463097D01*
X118947549Y-107282415D01*
X118947546Y-107282413D01*
X118717587Y-107052454D01*
X118536902Y-106782040D01*
X118412447Y-106481578D01*
X118349000Y-106162611D01*
X118349000Y-105837389D01*
X118412447Y-105518422D01*
X118536902Y-105217960D01*
X118717587Y-104947546D01*
X118947546Y-104717587D01*
X118951148Y-104715180D01*
X119217958Y-104536903D01*
X119518421Y-104412447D01*
X119624744Y-104391298D01*
X119837389Y-104349000D01*
X120162611Y-104349000D01*
X120375256Y-104391298D01*
X120375256Y-104391298D01*
G37*
G36*
X93375256Y-104391298D02*
X93481579Y-104412447D01*
X93782042Y-104536903D01*
X94048852Y-104715180D01*
X94052454Y-104717587D01*
X94282413Y-104947546D01*
X94463098Y-105217960D01*
X94587553Y-105518422D01*
X94651000Y-105837389D01*
X94651000Y-106162611D01*
X94587553Y-106481578D01*
X94463098Y-106782040D01*
X94282413Y-107052454D01*
X94052454Y-107282413D01*
X94052451Y-107282415D01*
X93782042Y-107463097D01*
X93481579Y-107587553D01*
X93375256Y-107608702D01*
X93162611Y-107651000D01*
X92837389Y-107651000D01*
X92624744Y-107608702D01*
X92518421Y-107587553D01*
X92217958Y-107463097D01*
X91947549Y-107282415D01*
X91947546Y-107282413D01*
X91717587Y-107052454D01*
X91536902Y-106782040D01*
X91412447Y-106481578D01*
X91349000Y-106162611D01*
X91349000Y-105837389D01*
X91412447Y-105518422D01*
X91536902Y-105217960D01*
X91717587Y-104947546D01*
X91947546Y-104717587D01*
X91951148Y-104715180D01*
X92217958Y-104536903D01*
X92518421Y-104412447D01*
X92624744Y-104391298D01*
X92837389Y-104349000D01*
X93162611Y-104349000D01*
X93375256Y-104391298D01*
X93375256Y-104391298D01*
G37*
G36*
X118683636Y-99061019D02*
X118864903Y-99097075D01*
X119092571Y-99191378D01*
X119187488Y-99254800D01*
X119297469Y-99328287D01*
X119471713Y-99502531D01*
X119471715Y-99502534D01*
X119608622Y-99707429D01*
X119702925Y-99935097D01*
X119751000Y-100176787D01*
X119751000Y-100423213D01*
X119702925Y-100664903D01*
X119608622Y-100892571D01*
X119537921Y-100998382D01*
X119471713Y-101097469D01*
X119297469Y-101271713D01*
X119297466Y-101271715D01*
X119092571Y-101408622D01*
X118864903Y-101502925D01*
X118714213Y-101532899D01*
X118623214Y-101551000D01*
X118376786Y-101551000D01*
X118285787Y-101532899D01*
X118135097Y-101502925D01*
X117907429Y-101408622D01*
X117702534Y-101271715D01*
X117702531Y-101271713D01*
X117528287Y-101097469D01*
X117462079Y-100998382D01*
X117391378Y-100892571D01*
X117297075Y-100664903D01*
X117249000Y-100423213D01*
X117249000Y-100176787D01*
X117297075Y-99935097D01*
X117391378Y-99707429D01*
X117528285Y-99502534D01*
X117528287Y-99502531D01*
X117702531Y-99328287D01*
X117812512Y-99254800D01*
X117907429Y-99191378D01*
X118135097Y-99097075D01*
X118316365Y-99061019D01*
X118376786Y-99049000D01*
X118623214Y-99049000D01*
X118683636Y-99061019D01*
X118683636Y-99061019D01*
G37*
G36*
X106045239Y-99067101D02*
X106281053Y-99138634D01*
X106498381Y-99254799D01*
X106688871Y-99411129D01*
X106845201Y-99601619D01*
X106961366Y-99818947D01*
X107032899Y-100054761D01*
X107057053Y-100300000D01*
X107032899Y-100545239D01*
X106961366Y-100781053D01*
X106845201Y-100998381D01*
X106688871Y-101188871D01*
X106498381Y-101345201D01*
X106281053Y-101461366D01*
X106045239Y-101532899D01*
X105861457Y-101551000D01*
X105738543Y-101551000D01*
X105554761Y-101532899D01*
X105318947Y-101461366D01*
X105101619Y-101345201D01*
X104911129Y-101188871D01*
X104754799Y-100998381D01*
X104638634Y-100781053D01*
X104567101Y-100545239D01*
X104542947Y-100300000D01*
X104567101Y-100054761D01*
X104638634Y-99818947D01*
X104754799Y-99601619D01*
X104911129Y-99411129D01*
X105101619Y-99254799D01*
X105318947Y-99138634D01*
X105554761Y-99067101D01*
X105738543Y-99049000D01*
X105861457Y-99049000D01*
X106045239Y-99067101D01*
X106045239Y-99067101D01*
G37*
G36*
X100379485Y-97748996D02*
X100379487Y-97748997D01*
X100379488Y-97748997D01*
X100616255Y-97847069D01*
X100829342Y-97989449D01*
X101010551Y-98170658D01*
X101152931Y-98383745D01*
X101251004Y-98620515D01*
X101301000Y-98871861D01*
X101301000Y-99128139D01*
X101251004Y-99379485D01*
X101152931Y-99616255D01*
X101010551Y-99829342D01*
X100829342Y-100010551D01*
X100829339Y-100010553D01*
X100616255Y-100152931D01*
X100379488Y-100251003D01*
X100379487Y-100251003D01*
X100379485Y-100251004D01*
X100128139Y-100301000D01*
X99871861Y-100301000D01*
X99620515Y-100251004D01*
X99620513Y-100251003D01*
X99620512Y-100251003D01*
X99383745Y-100152931D01*
X99170661Y-100010553D01*
X99170658Y-100010551D01*
X98989449Y-99829342D01*
X98847069Y-99616255D01*
X98748996Y-99379485D01*
X98699000Y-99128139D01*
X98699000Y-98871861D01*
X98748996Y-98620515D01*
X98847069Y-98383745D01*
X98989449Y-98170658D01*
X99170658Y-97989449D01*
X99383745Y-97847069D01*
X99620512Y-97748997D01*
X99620513Y-97748997D01*
X99620515Y-97748996D01*
X99871861Y-97699000D01*
X100128139Y-97699000D01*
X100379485Y-97748996D01*
X100379485Y-97748996D01*
G37*
G36*
X118683635Y-94861019D02*
X118864903Y-94897075D01*
X119092571Y-94991378D01*
X119187488Y-95054800D01*
X119297469Y-95128287D01*
X119471713Y-95302531D01*
X119471715Y-95302534D01*
X119608622Y-95507429D01*
X119702925Y-95735097D01*
X119751000Y-95976787D01*
X119751000Y-96223213D01*
X119702925Y-96464903D01*
X119608622Y-96692571D01*
X119537921Y-96798382D01*
X119471713Y-96897469D01*
X119297469Y-97071713D01*
X119297466Y-97071715D01*
X119092571Y-97208622D01*
X118864903Y-97302925D01*
X118714213Y-97332899D01*
X118623214Y-97351000D01*
X118376786Y-97351000D01*
X118285787Y-97332899D01*
X118135097Y-97302925D01*
X117907429Y-97208622D01*
X117702534Y-97071715D01*
X117702531Y-97071713D01*
X117528287Y-96897469D01*
X117462079Y-96798382D01*
X117391378Y-96692571D01*
X117297075Y-96464903D01*
X117249000Y-96223213D01*
X117249000Y-95976787D01*
X117297075Y-95735097D01*
X117391378Y-95507429D01*
X117528285Y-95302534D01*
X117528287Y-95302531D01*
X117702531Y-95128287D01*
X117812512Y-95054800D01*
X117907429Y-94991378D01*
X118135097Y-94897075D01*
X118316365Y-94861019D01*
X118376786Y-94849000D01*
X118623214Y-94849000D01*
X118683635Y-94861019D01*
X118683635Y-94861019D01*
G37*
G36*
X106045239Y-94867101D02*
X106281053Y-94938634D01*
X106498381Y-95054799D01*
X106688871Y-95211129D01*
X106845201Y-95401619D01*
X106961366Y-95618947D01*
X107032899Y-95854761D01*
X107057053Y-96100000D01*
X107032899Y-96345239D01*
X106961366Y-96581053D01*
X106845201Y-96798381D01*
X106688871Y-96988871D01*
X106498381Y-97145201D01*
X106281053Y-97261366D01*
X106045239Y-97332899D01*
X105861457Y-97351000D01*
X105738543Y-97351000D01*
X105554761Y-97332899D01*
X105318947Y-97261366D01*
X105101619Y-97145201D01*
X104911129Y-96988871D01*
X104754799Y-96798381D01*
X104638634Y-96581053D01*
X104567101Y-96345239D01*
X104542947Y-96100000D01*
X104567101Y-95854761D01*
X104638634Y-95618947D01*
X104754799Y-95401619D01*
X104911129Y-95211129D01*
X105101619Y-95054799D01*
X105318947Y-94938634D01*
X105554761Y-94867101D01*
X105738543Y-94849000D01*
X105861457Y-94849000D01*
X106045239Y-94867101D01*
X106045239Y-94867101D01*
G37*
G36*
X100379485Y-92748996D02*
X100379487Y-92748997D01*
X100379488Y-92748997D01*
X100616255Y-92847069D01*
X100829342Y-92989449D01*
X101010551Y-93170658D01*
X101152931Y-93383745D01*
X101251004Y-93620515D01*
X101301000Y-93871861D01*
X101301000Y-94128139D01*
X101251004Y-94379485D01*
X101152931Y-94616255D01*
X101010551Y-94829342D01*
X100829342Y-95010551D01*
X100829339Y-95010553D01*
X100616255Y-95152931D01*
X100379488Y-95251003D01*
X100379487Y-95251003D01*
X100379485Y-95251004D01*
X100128139Y-95301000D01*
X99871861Y-95301000D01*
X99620515Y-95251004D01*
X99620513Y-95251003D01*
X99620512Y-95251003D01*
X99383745Y-95152931D01*
X99170661Y-95010553D01*
X99170658Y-95010551D01*
X98989449Y-94829342D01*
X98847069Y-94616255D01*
X98748996Y-94379485D01*
X98699000Y-94128139D01*
X98699000Y-93871861D01*
X98748996Y-93620515D01*
X98847069Y-93383745D01*
X98989449Y-93170658D01*
X99170658Y-92989449D01*
X99383745Y-92847069D01*
X99620512Y-92748997D01*
X99620513Y-92748997D01*
X99620515Y-92748996D01*
X99871861Y-92699000D01*
X100128139Y-92699000D01*
X100379485Y-92748996D01*
X100379485Y-92748996D01*
G37*
G36*
X110951000Y-92951000D02*
X109049000Y-92951000D01*
X109049000Y-91049000D01*
X110951000Y-91049000D01*
X110951000Y-92951000D01*
X110951000Y-92951000D01*
G37*
G36*
X110277396Y-88545546D02*
X110450466Y-88617234D01*
X110606230Y-88721312D01*
X110738688Y-88853770D01*
X110842766Y-89009534D01*
X110914454Y-89182604D01*
X110951000Y-89366333D01*
X110951000Y-89553667D01*
X110914454Y-89737396D01*
X110842766Y-89910466D01*
X110738688Y-90066230D01*
X110606230Y-90198688D01*
X110450466Y-90302766D01*
X110277396Y-90374454D01*
X110093667Y-90411000D01*
X109906333Y-90411000D01*
X109722604Y-90374454D01*
X109549534Y-90302766D01*
X109393770Y-90198688D01*
X109261312Y-90066230D01*
X109157234Y-89910466D01*
X109085546Y-89737396D01*
X109049000Y-89553667D01*
X109049000Y-89366333D01*
X109085546Y-89182604D01*
X109157234Y-89009534D01*
X109261312Y-88853770D01*
X109393770Y-88721312D01*
X109549534Y-88617234D01*
X109722604Y-88545546D01*
X109906333Y-88509000D01*
X110093667Y-88509000D01*
X110277396Y-88545546D01*
X110277396Y-88545546D01*
G37*
G36*
X100379485Y-87748996D02*
X100379487Y-87748997D01*
X100379488Y-87748997D01*
X100616255Y-87847069D01*
X100829342Y-87989449D01*
X101010551Y-88170658D01*
X101010553Y-88170661D01*
X101152931Y-88383745D01*
X101249646Y-88617235D01*
X101251004Y-88620515D01*
X101301000Y-88871861D01*
X101301000Y-89128139D01*
X101251004Y-89379485D01*
X101152931Y-89616255D01*
X101010551Y-89829342D01*
X100829342Y-90010551D01*
X100829339Y-90010553D01*
X100616255Y-90152931D01*
X100379488Y-90251003D01*
X100379487Y-90251003D01*
X100379485Y-90251004D01*
X100128139Y-90301000D01*
X99871861Y-90301000D01*
X99620515Y-90251004D01*
X99620513Y-90251003D01*
X99620512Y-90251003D01*
X99383745Y-90152931D01*
X99170661Y-90010553D01*
X99170658Y-90010551D01*
X98989449Y-89829342D01*
X98847069Y-89616255D01*
X98748996Y-89379485D01*
X98699000Y-89128139D01*
X98699000Y-88871861D01*
X98748996Y-88620515D01*
X98750355Y-88617235D01*
X98847069Y-88383745D01*
X98989447Y-88170661D01*
X98989449Y-88170658D01*
X99170658Y-87989449D01*
X99383745Y-87847069D01*
X99620512Y-87748997D01*
X99620513Y-87748997D01*
X99620515Y-87748996D01*
X99871861Y-87699000D01*
X100128139Y-87699000D01*
X100379485Y-87748996D01*
X100379485Y-87748996D01*
G37*
G36*
X117706820Y-86761313D02*
X117706823Y-86761314D01*
X117706824Y-86761314D01*
X117867238Y-86809975D01*
X117867240Y-86809976D01*
X117867243Y-86809977D01*
X118015078Y-86888995D01*
X118144659Y-86995341D01*
X118251005Y-87124922D01*
X118330023Y-87272756D01*
X118378687Y-87433179D01*
X118391000Y-87558196D01*
X118391000Y-88441803D01*
X118378687Y-88566820D01*
X118378686Y-88566822D01*
X118378686Y-88566825D01*
X118330025Y-88727239D01*
X118330023Y-88727244D01*
X118251005Y-88875078D01*
X118144659Y-89004659D01*
X118015078Y-89111005D01*
X117867244Y-89190023D01*
X117867241Y-89190024D01*
X117867239Y-89190025D01*
X117706825Y-89238686D01*
X117706824Y-89238686D01*
X117706821Y-89238687D01*
X117540000Y-89255117D01*
X117373180Y-89238687D01*
X117373177Y-89238686D01*
X117373176Y-89238686D01*
X117212762Y-89190025D01*
X117212760Y-89190024D01*
X117212757Y-89190023D01*
X117064923Y-89111005D01*
X116935342Y-89004659D01*
X116828996Y-88875078D01*
X116749978Y-88727244D01*
X116748179Y-88721312D01*
X116701315Y-88566825D01*
X116701315Y-88566824D01*
X116701314Y-88566821D01*
X116689000Y-88441803D01*
X116689000Y-87558197D01*
X116701313Y-87433180D01*
X116701314Y-87433176D01*
X116749975Y-87272762D01*
X116749976Y-87272760D01*
X116749977Y-87272757D01*
X116828995Y-87124922D01*
X116935341Y-86995341D01*
X117064922Y-86888995D01*
X117212756Y-86809977D01*
X117212759Y-86809976D01*
X117212761Y-86809975D01*
X117373175Y-86761314D01*
X117373176Y-86761314D01*
X117373179Y-86761313D01*
X117540000Y-86744883D01*
X117706820Y-86761313D01*
X117706820Y-86761313D01*
G37*
G36*
X115851000Y-89251000D02*
X114149000Y-89251000D01*
X114149000Y-86749000D01*
X115851000Y-86749000D01*
X115851000Y-89251000D01*
X115851000Y-89251000D01*
G37*
G36*
X100379485Y-81248996D02*
X100379487Y-81248997D01*
X100379488Y-81248997D01*
X100616255Y-81347069D01*
X100829342Y-81489449D01*
X101010551Y-81670658D01*
X101152931Y-81883745D01*
X101251004Y-82120515D01*
X101301000Y-82371861D01*
X101301000Y-82628139D01*
X101251004Y-82879485D01*
X101152931Y-83116255D01*
X101010551Y-83329342D01*
X100829342Y-83510551D01*
X100829339Y-83510553D01*
X100616255Y-83652931D01*
X100379488Y-83751003D01*
X100379487Y-83751003D01*
X100379485Y-83751004D01*
X100128139Y-83801000D01*
X99871861Y-83801000D01*
X99620515Y-83751004D01*
X99620513Y-83751003D01*
X99620512Y-83751003D01*
X99383745Y-83652931D01*
X99170661Y-83510553D01*
X99170658Y-83510551D01*
X98989449Y-83329342D01*
X98847069Y-83116255D01*
X98748996Y-82879485D01*
X98699000Y-82628139D01*
X98699000Y-82371861D01*
X98748996Y-82120515D01*
X98847069Y-81883745D01*
X98989449Y-81670658D01*
X99170658Y-81489449D01*
X99383745Y-81347069D01*
X99620512Y-81248997D01*
X99620513Y-81248997D01*
X99620515Y-81248996D01*
X99871861Y-81199000D01*
X100128139Y-81199000D01*
X100379485Y-81248996D01*
X100379485Y-81248996D01*
G37*
G36*
X117706820Y-76601313D02*
X117706823Y-76601314D01*
X117706824Y-76601314D01*
X117867238Y-76649975D01*
X117867240Y-76649976D01*
X117867243Y-76649977D01*
X118015078Y-76728995D01*
X118144659Y-76835341D01*
X118251005Y-76964922D01*
X118330023Y-77112756D01*
X118378687Y-77273179D01*
X118391000Y-77398196D01*
X118391000Y-78281803D01*
X118378687Y-78406820D01*
X118378686Y-78406822D01*
X118378686Y-78406825D01*
X118347221Y-78510551D01*
X118330023Y-78567244D01*
X118251005Y-78715078D01*
X118144659Y-78844659D01*
X118015078Y-78951005D01*
X117867244Y-79030023D01*
X117867241Y-79030024D01*
X117867239Y-79030025D01*
X117706825Y-79078686D01*
X117706824Y-79078686D01*
X117706821Y-79078687D01*
X117540000Y-79095117D01*
X117373180Y-79078687D01*
X117373177Y-79078686D01*
X117373176Y-79078686D01*
X117212762Y-79030025D01*
X117212760Y-79030024D01*
X117212757Y-79030023D01*
X117064923Y-78951005D01*
X116935342Y-78844659D01*
X116828996Y-78715078D01*
X116749978Y-78567244D01*
X116701314Y-78406821D01*
X116689000Y-78281803D01*
X116689000Y-77398197D01*
X116701313Y-77273180D01*
X116701314Y-77273176D01*
X116749975Y-77112762D01*
X116749976Y-77112760D01*
X116749977Y-77112757D01*
X116828995Y-76964922D01*
X116935341Y-76835341D01*
X117064922Y-76728995D01*
X117212756Y-76649977D01*
X117212759Y-76649976D01*
X117212761Y-76649975D01*
X117373175Y-76601314D01*
X117373176Y-76601314D01*
X117373179Y-76601313D01*
X117540000Y-76584883D01*
X117706820Y-76601313D01*
X117706820Y-76601313D01*
G37*
G36*
X115166820Y-76601313D02*
X115166823Y-76601314D01*
X115166824Y-76601314D01*
X115327238Y-76649975D01*
X115327240Y-76649976D01*
X115327243Y-76649977D01*
X115475078Y-76728995D01*
X115604659Y-76835341D01*
X115711005Y-76964922D01*
X115790023Y-77112756D01*
X115838687Y-77273179D01*
X115851000Y-77398196D01*
X115851000Y-78281803D01*
X115838687Y-78406820D01*
X115838686Y-78406822D01*
X115838686Y-78406825D01*
X115807221Y-78510551D01*
X115790023Y-78567244D01*
X115711005Y-78715078D01*
X115604659Y-78844659D01*
X115475078Y-78951005D01*
X115327244Y-79030023D01*
X115327241Y-79030024D01*
X115327239Y-79030025D01*
X115166825Y-79078686D01*
X115166824Y-79078686D01*
X115166821Y-79078687D01*
X115000000Y-79095117D01*
X114833180Y-79078687D01*
X114833177Y-79078686D01*
X114833176Y-79078686D01*
X114672762Y-79030025D01*
X114672760Y-79030024D01*
X114672757Y-79030023D01*
X114524923Y-78951005D01*
X114395342Y-78844659D01*
X114288996Y-78715078D01*
X114209978Y-78567244D01*
X114161314Y-78406821D01*
X114149000Y-78281803D01*
X114149000Y-77398197D01*
X114161313Y-77273180D01*
X114161314Y-77273176D01*
X114209975Y-77112762D01*
X114209976Y-77112760D01*
X114209977Y-77112757D01*
X114288995Y-76964922D01*
X114395341Y-76835341D01*
X114524922Y-76728995D01*
X114672756Y-76649977D01*
X114672759Y-76649976D01*
X114672761Y-76649975D01*
X114833175Y-76601314D01*
X114833176Y-76601314D01*
X114833179Y-76601313D01*
X115000000Y-76584883D01*
X115166820Y-76601313D01*
X115166820Y-76601313D01*
G37*
G36*
X100379485Y-76248996D02*
X100379487Y-76248997D01*
X100379488Y-76248997D01*
X100616255Y-76347069D01*
X100829342Y-76489449D01*
X101010551Y-76670658D01*
X101010553Y-76670661D01*
X101152931Y-76883745D01*
X101186556Y-76964922D01*
X101251004Y-77120515D01*
X101301000Y-77371861D01*
X101301000Y-77628139D01*
X101251004Y-77879485D01*
X101152931Y-78116255D01*
X101010551Y-78329342D01*
X100829342Y-78510551D01*
X100829339Y-78510553D01*
X100616255Y-78652931D01*
X100379488Y-78751003D01*
X100379487Y-78751003D01*
X100379485Y-78751004D01*
X100128139Y-78801000D01*
X99871861Y-78801000D01*
X99620515Y-78751004D01*
X99620513Y-78751003D01*
X99620512Y-78751003D01*
X99383745Y-78652931D01*
X99170661Y-78510553D01*
X99170658Y-78510551D01*
X98989449Y-78329342D01*
X98847069Y-78116255D01*
X98748996Y-77879485D01*
X98699000Y-77628139D01*
X98699000Y-77371861D01*
X98748996Y-77120515D01*
X98813445Y-76964922D01*
X98847069Y-76883745D01*
X98989447Y-76670661D01*
X98989449Y-76670658D01*
X99170658Y-76489449D01*
X99383745Y-76347069D01*
X99620512Y-76248997D01*
X99620513Y-76248997D01*
X99620515Y-76248996D01*
X99871861Y-76199000D01*
X100128139Y-76199000D01*
X100379485Y-76248996D01*
X100379485Y-76248996D01*
G37*
G36*
X100379485Y-69748996D02*
X100379487Y-69748997D01*
X100379488Y-69748997D01*
X100616255Y-69847069D01*
X100829342Y-69989449D01*
X101010551Y-70170658D01*
X101152931Y-70383745D01*
X101251004Y-70620515D01*
X101301000Y-70871861D01*
X101301000Y-71128139D01*
X101251004Y-71379485D01*
X101152931Y-71616255D01*
X101010551Y-71829342D01*
X100829342Y-72010551D01*
X100829339Y-72010553D01*
X100616255Y-72152931D01*
X100379488Y-72251003D01*
X100379487Y-72251003D01*
X100379485Y-72251004D01*
X100128139Y-72301000D01*
X99871861Y-72301000D01*
X99620515Y-72251004D01*
X99620513Y-72251003D01*
X99620512Y-72251003D01*
X99383745Y-72152931D01*
X99170661Y-72010553D01*
X99170658Y-72010551D01*
X98989449Y-71829342D01*
X98847069Y-71616255D01*
X98748996Y-71379485D01*
X98699000Y-71128139D01*
X98699000Y-70871861D01*
X98748996Y-70620515D01*
X98847069Y-70383745D01*
X98989449Y-70170658D01*
X99170658Y-69989449D01*
X99383745Y-69847069D01*
X99620512Y-69748997D01*
X99620513Y-69748997D01*
X99620515Y-69748996D01*
X99871861Y-69699000D01*
X100128139Y-69699000D01*
X100379485Y-69748996D01*
X100379485Y-69748996D01*
G37*
G36*
X100379485Y-64748996D02*
X100379487Y-64748997D01*
X100379488Y-64748997D01*
X100616255Y-64847069D01*
X100829342Y-64989449D01*
X101010551Y-65170658D01*
X101152931Y-65383745D01*
X101251004Y-65620515D01*
X101301000Y-65871861D01*
X101301000Y-66128139D01*
X101251004Y-66379485D01*
X101152931Y-66616255D01*
X101010551Y-66829342D01*
X100829342Y-67010551D01*
X100829339Y-67010553D01*
X100616255Y-67152931D01*
X100379488Y-67251003D01*
X100379487Y-67251003D01*
X100379485Y-67251004D01*
X100128139Y-67301000D01*
X99871861Y-67301000D01*
X99620515Y-67251004D01*
X99620513Y-67251003D01*
X99620512Y-67251003D01*
X99383745Y-67152931D01*
X99170661Y-67010553D01*
X99170658Y-67010551D01*
X98989449Y-66829342D01*
X98847069Y-66616255D01*
X98748996Y-66379485D01*
X98699000Y-66128139D01*
X98699000Y-65871861D01*
X98748996Y-65620515D01*
X98847069Y-65383745D01*
X98989449Y-65170658D01*
X99170658Y-64989449D01*
X99383745Y-64847069D01*
X99620512Y-64748997D01*
X99620513Y-64748997D01*
X99620515Y-64748996D01*
X99871861Y-64699000D01*
X100128139Y-64699000D01*
X100379485Y-64748996D01*
X100379485Y-64748996D01*
G37*
G36*
X93375256Y-57391298D02*
X93481579Y-57412447D01*
X93782042Y-57536903D01*
X94048852Y-57715180D01*
X94052454Y-57717587D01*
X94282413Y-57947546D01*
X94463098Y-58217960D01*
X94587553Y-58518422D01*
X94651000Y-58837389D01*
X94651000Y-59162611D01*
X94587553Y-59481578D01*
X94463098Y-59782040D01*
X94282413Y-60052454D01*
X94052454Y-60282413D01*
X94052451Y-60282415D01*
X93782042Y-60463097D01*
X93481579Y-60587553D01*
X93375256Y-60608702D01*
X93162611Y-60651000D01*
X92837389Y-60651000D01*
X92624744Y-60608702D01*
X92518421Y-60587553D01*
X92217958Y-60463097D01*
X91947549Y-60282415D01*
X91947546Y-60282413D01*
X91717587Y-60052454D01*
X91536902Y-59782040D01*
X91412447Y-59481578D01*
X91349000Y-59162611D01*
X91349000Y-58837389D01*
X91412447Y-58518422D01*
X91536902Y-58217960D01*
X91717587Y-57947546D01*
X91947546Y-57717587D01*
X91951148Y-57715180D01*
X92217958Y-57536903D01*
X92518421Y-57412447D01*
X92624744Y-57391298D01*
X92837389Y-57349000D01*
X93162611Y-57349000D01*
X93375256Y-57391298D01*
X93375256Y-57391298D01*
G37*
G36*
X120375256Y-57391298D02*
X120481579Y-57412447D01*
X120782042Y-57536903D01*
X121048852Y-57715180D01*
X121052454Y-57717587D01*
X121282413Y-57947546D01*
X121463098Y-58217960D01*
X121587553Y-58518422D01*
X121651000Y-58837389D01*
X121651000Y-59162611D01*
X121587553Y-59481578D01*
X121463098Y-59782040D01*
X121282413Y-60052454D01*
X121052454Y-60282413D01*
X121052451Y-60282415D01*
X120782042Y-60463097D01*
X120481579Y-60587553D01*
X120375256Y-60608702D01*
X120162611Y-60651000D01*
X119837389Y-60651000D01*
X119624744Y-60608702D01*
X119518421Y-60587553D01*
X119217958Y-60463097D01*
X118947549Y-60282415D01*
X118947546Y-60282413D01*
X118717587Y-60052454D01*
X118536902Y-59782040D01*
X118412447Y-59481578D01*
X118349000Y-59162611D01*
X118349000Y-58837389D01*
X118412447Y-58518422D01*
X118536902Y-58217960D01*
X118717587Y-57947546D01*
X118947546Y-57717587D01*
X118951148Y-57715180D01*
X119217958Y-57536903D01*
X119518421Y-57412447D01*
X119624744Y-57391298D01*
X119837389Y-57349000D01*
X120162611Y-57349000D01*
X120375256Y-57391298D01*
X120375256Y-57391298D01*
G37*
M02*
