G04 #@! TF.GenerationSoftware,KiCad,Pcbnew,(5.0.1)-3*
G04 #@! TF.CreationDate,2019-02-16T21:55:47-05:00*
G04 #@! TF.ProjectId,Zprobe Adaptor,5A70726F62652041646170746F722E6B,rev?*
G04 #@! TF.SameCoordinates,Original*
G04 #@! TF.FileFunction,Drawing*
%FSLAX46Y46*%
G04 Gerber Fmt 4.6, Leading zero omitted, Abs format (unit mm)*
G04 Created by KiCad (PCBNEW (5.0.1)-3) date 2/16/2019 9:55:47 PM*
%MOMM*%
%LPD*%
G01*
G04 APERTURE LIST*
%ADD10C,0.300000*%
%ADD11C,0.200000*%
G04 APERTURE END LIST*
D10*
X50159285Y-105653571D02*
X51087857Y-105653571D01*
X50587857Y-106225000D01*
X50802142Y-106225000D01*
X50945000Y-106296428D01*
X51016428Y-106367857D01*
X51087857Y-106510714D01*
X51087857Y-106867857D01*
X51016428Y-107010714D01*
X50945000Y-107082142D01*
X50802142Y-107153571D01*
X50373571Y-107153571D01*
X50230714Y-107082142D01*
X50159285Y-107010714D01*
X52873571Y-107153571D02*
X52873571Y-105653571D01*
X53445000Y-105653571D01*
X53587857Y-105725000D01*
X53659285Y-105796428D01*
X53730714Y-105939285D01*
X53730714Y-106153571D01*
X53659285Y-106296428D01*
X53587857Y-106367857D01*
X53445000Y-106439285D01*
X52873571Y-106439285D01*
X54373571Y-107153571D02*
X54373571Y-106153571D01*
X54373571Y-105653571D02*
X54302142Y-105725000D01*
X54373571Y-105796428D01*
X54445000Y-105725000D01*
X54373571Y-105653571D01*
X54373571Y-105796428D01*
X55087857Y-106153571D02*
X55087857Y-107153571D01*
X55087857Y-106296428D02*
X55159285Y-106225000D01*
X55302142Y-106153571D01*
X55516428Y-106153571D01*
X55659285Y-106225000D01*
X55730714Y-106367857D01*
X55730714Y-107153571D01*
X58302142Y-105653571D02*
X57587857Y-105653571D01*
X57516428Y-106367857D01*
X57587857Y-106296428D01*
X57730714Y-106225000D01*
X58087857Y-106225000D01*
X58230714Y-106296428D01*
X58302142Y-106367857D01*
X58373571Y-106510714D01*
X58373571Y-106867857D01*
X58302142Y-107010714D01*
X58230714Y-107082142D01*
X58087857Y-107153571D01*
X57730714Y-107153571D01*
X57587857Y-107082142D01*
X57516428Y-107010714D01*
X59016428Y-107153571D02*
X59016428Y-106153571D01*
X59016428Y-106296428D02*
X59087857Y-106225000D01*
X59230714Y-106153571D01*
X59445000Y-106153571D01*
X59587857Y-106225000D01*
X59659285Y-106367857D01*
X59659285Y-107153571D01*
X59659285Y-106367857D02*
X59730714Y-106225000D01*
X59873571Y-106153571D01*
X60087857Y-106153571D01*
X60230714Y-106225000D01*
X60302142Y-106367857D01*
X60302142Y-107153571D01*
X61016428Y-107153571D02*
X61016428Y-106153571D01*
X61016428Y-106296428D02*
X61087857Y-106225000D01*
X61230714Y-106153571D01*
X61445000Y-106153571D01*
X61587857Y-106225000D01*
X61659285Y-106367857D01*
X61659285Y-107153571D01*
X61659285Y-106367857D02*
X61730714Y-106225000D01*
X61873571Y-106153571D01*
X62087857Y-106153571D01*
X62230714Y-106225000D01*
X62302142Y-106367857D01*
X62302142Y-107153571D01*
X64159285Y-107153571D02*
X64159285Y-105653571D01*
X64730714Y-105653571D01*
X64873571Y-105725000D01*
X64945000Y-105796428D01*
X65016428Y-105939285D01*
X65016428Y-106153571D01*
X64945000Y-106296428D01*
X64873571Y-106367857D01*
X64730714Y-106439285D01*
X64159285Y-106439285D01*
X65659285Y-107153571D02*
X65659285Y-106153571D01*
X65659285Y-105653571D02*
X65587857Y-105725000D01*
X65659285Y-105796428D01*
X65730714Y-105725000D01*
X65659285Y-105653571D01*
X65659285Y-105796428D01*
X66159285Y-106153571D02*
X66730714Y-106153571D01*
X66373571Y-105653571D02*
X66373571Y-106939285D01*
X66445000Y-107082142D01*
X66587857Y-107153571D01*
X66730714Y-107153571D01*
X67873571Y-107082142D02*
X67730714Y-107153571D01*
X67445000Y-107153571D01*
X67302142Y-107082142D01*
X67230714Y-107010714D01*
X67159285Y-106867857D01*
X67159285Y-106439285D01*
X67230714Y-106296428D01*
X67302142Y-106225000D01*
X67445000Y-106153571D01*
X67730714Y-106153571D01*
X67873571Y-106225000D01*
X68516428Y-107153571D02*
X68516428Y-105653571D01*
X69159285Y-107153571D02*
X69159285Y-106367857D01*
X69087857Y-106225000D01*
X68945000Y-106153571D01*
X68730714Y-106153571D01*
X68587857Y-106225000D01*
X68516428Y-106296428D01*
X50230714Y-109632142D02*
X50445000Y-109703571D01*
X50802142Y-109703571D01*
X50945000Y-109632142D01*
X51016428Y-109560714D01*
X51087857Y-109417857D01*
X51087857Y-109275000D01*
X51016428Y-109132142D01*
X50945000Y-109060714D01*
X50802142Y-108989285D01*
X50516428Y-108917857D01*
X50373571Y-108846428D01*
X50302142Y-108775000D01*
X50230714Y-108632142D01*
X50230714Y-108489285D01*
X50302142Y-108346428D01*
X50373571Y-108275000D01*
X50516428Y-108203571D01*
X50873571Y-108203571D01*
X51087857Y-108275000D01*
X52373571Y-109632142D02*
X52230714Y-109703571D01*
X51945000Y-109703571D01*
X51802142Y-109632142D01*
X51730714Y-109560714D01*
X51659285Y-109417857D01*
X51659285Y-108989285D01*
X51730714Y-108846428D01*
X51802142Y-108775000D01*
X51945000Y-108703571D01*
X52230714Y-108703571D01*
X52373571Y-108775000D01*
X53016428Y-109703571D02*
X53016428Y-108703571D01*
X53016428Y-108989285D02*
X53087857Y-108846428D01*
X53159285Y-108775000D01*
X53302142Y-108703571D01*
X53445000Y-108703571D01*
X54516428Y-109632142D02*
X54373571Y-109703571D01*
X54087857Y-109703571D01*
X53945000Y-109632142D01*
X53873571Y-109489285D01*
X53873571Y-108917857D01*
X53945000Y-108775000D01*
X54087857Y-108703571D01*
X54373571Y-108703571D01*
X54516428Y-108775000D01*
X54587857Y-108917857D01*
X54587857Y-109060714D01*
X53873571Y-109203571D01*
X55087857Y-108703571D02*
X55373571Y-109703571D01*
X55659285Y-108989285D01*
X55945000Y-109703571D01*
X56230714Y-108703571D01*
X57730714Y-108203571D02*
X58587857Y-108203571D01*
X58159285Y-109703571D02*
X58159285Y-108203571D01*
X59659285Y-109632142D02*
X59516428Y-109703571D01*
X59230714Y-109703571D01*
X59087857Y-109632142D01*
X59016428Y-109489285D01*
X59016428Y-108917857D01*
X59087857Y-108775000D01*
X59230714Y-108703571D01*
X59516428Y-108703571D01*
X59659285Y-108775000D01*
X59730714Y-108917857D01*
X59730714Y-109060714D01*
X59016428Y-109203571D01*
X60373571Y-109703571D02*
X60373571Y-108703571D01*
X60373571Y-108989285D02*
X60445000Y-108846428D01*
X60516428Y-108775000D01*
X60659285Y-108703571D01*
X60802142Y-108703571D01*
X61302142Y-109703571D02*
X61302142Y-108703571D01*
X61302142Y-108846428D02*
X61373571Y-108775000D01*
X61516428Y-108703571D01*
X61730714Y-108703571D01*
X61873571Y-108775000D01*
X61945000Y-108917857D01*
X61945000Y-109703571D01*
X61945000Y-108917857D02*
X62016428Y-108775000D01*
X62159285Y-108703571D01*
X62373571Y-108703571D01*
X62516428Y-108775000D01*
X62587857Y-108917857D01*
X62587857Y-109703571D01*
X63302142Y-109703571D02*
X63302142Y-108703571D01*
X63302142Y-108203571D02*
X63230714Y-108275000D01*
X63302142Y-108346428D01*
X63373571Y-108275000D01*
X63302142Y-108203571D01*
X63302142Y-108346428D01*
X64016428Y-108703571D02*
X64016428Y-109703571D01*
X64016428Y-108846428D02*
X64087857Y-108775000D01*
X64230714Y-108703571D01*
X64445000Y-108703571D01*
X64587857Y-108775000D01*
X64659285Y-108917857D01*
X64659285Y-109703571D01*
X66016428Y-109703571D02*
X66016428Y-108917857D01*
X65945000Y-108775000D01*
X65802142Y-108703571D01*
X65516428Y-108703571D01*
X65373571Y-108775000D01*
X66016428Y-109632142D02*
X65873571Y-109703571D01*
X65516428Y-109703571D01*
X65373571Y-109632142D01*
X65302142Y-109489285D01*
X65302142Y-109346428D01*
X65373571Y-109203571D01*
X65516428Y-109132142D01*
X65873571Y-109132142D01*
X66016428Y-109060714D01*
X66945000Y-109703571D02*
X66802142Y-109632142D01*
X66730714Y-109489285D01*
X66730714Y-108203571D01*
X50730714Y-95796428D02*
X50802142Y-95725000D01*
X50945000Y-95653571D01*
X51302142Y-95653571D01*
X51445000Y-95725000D01*
X51516428Y-95796428D01*
X51587857Y-95939285D01*
X51587857Y-96082142D01*
X51516428Y-96296428D01*
X50659285Y-97153571D01*
X51587857Y-97153571D01*
X53373571Y-97153571D02*
X53373571Y-95653571D01*
X53945000Y-95653571D01*
X54087857Y-95725000D01*
X54159285Y-95796428D01*
X54230714Y-95939285D01*
X54230714Y-96153571D01*
X54159285Y-96296428D01*
X54087857Y-96367857D01*
X53945000Y-96439285D01*
X53373571Y-96439285D01*
X54873571Y-97153571D02*
X54873571Y-96153571D01*
X54873571Y-95653571D02*
X54802142Y-95725000D01*
X54873571Y-95796428D01*
X54945000Y-95725000D01*
X54873571Y-95653571D01*
X54873571Y-95796428D01*
X55587857Y-96153571D02*
X55587857Y-97153571D01*
X55587857Y-96296428D02*
X55659285Y-96225000D01*
X55802142Y-96153571D01*
X56016428Y-96153571D01*
X56159285Y-96225000D01*
X56230714Y-96367857D01*
X56230714Y-97153571D01*
X58802142Y-95653571D02*
X58087857Y-95653571D01*
X58016428Y-96367857D01*
X58087857Y-96296428D01*
X58230714Y-96225000D01*
X58587857Y-96225000D01*
X58730714Y-96296428D01*
X58802142Y-96367857D01*
X58873571Y-96510714D01*
X58873571Y-96867857D01*
X58802142Y-97010714D01*
X58730714Y-97082142D01*
X58587857Y-97153571D01*
X58230714Y-97153571D01*
X58087857Y-97082142D01*
X58016428Y-97010714D01*
X59516428Y-97153571D02*
X59516428Y-96153571D01*
X59516428Y-96296428D02*
X59587857Y-96225000D01*
X59730714Y-96153571D01*
X59945000Y-96153571D01*
X60087857Y-96225000D01*
X60159285Y-96367857D01*
X60159285Y-97153571D01*
X60159285Y-96367857D02*
X60230714Y-96225000D01*
X60373571Y-96153571D01*
X60587857Y-96153571D01*
X60730714Y-96225000D01*
X60802142Y-96367857D01*
X60802142Y-97153571D01*
X61516428Y-97153571D02*
X61516428Y-96153571D01*
X61516428Y-96296428D02*
X61587857Y-96225000D01*
X61730714Y-96153571D01*
X61945000Y-96153571D01*
X62087857Y-96225000D01*
X62159285Y-96367857D01*
X62159285Y-97153571D01*
X62159285Y-96367857D02*
X62230714Y-96225000D01*
X62373571Y-96153571D01*
X62587857Y-96153571D01*
X62730714Y-96225000D01*
X62802142Y-96367857D01*
X62802142Y-97153571D01*
X64659285Y-97153571D02*
X64659285Y-95653571D01*
X65230714Y-95653571D01*
X65373571Y-95725000D01*
X65445000Y-95796428D01*
X65516428Y-95939285D01*
X65516428Y-96153571D01*
X65445000Y-96296428D01*
X65373571Y-96367857D01*
X65230714Y-96439285D01*
X64659285Y-96439285D01*
X66159285Y-97153571D02*
X66159285Y-96153571D01*
X66159285Y-95653571D02*
X66087857Y-95725000D01*
X66159285Y-95796428D01*
X66230714Y-95725000D01*
X66159285Y-95653571D01*
X66159285Y-95796428D01*
X66659285Y-96153571D02*
X67230714Y-96153571D01*
X66873571Y-95653571D02*
X66873571Y-96939285D01*
X66945000Y-97082142D01*
X67087857Y-97153571D01*
X67230714Y-97153571D01*
X68373571Y-97082142D02*
X68230714Y-97153571D01*
X67945000Y-97153571D01*
X67802142Y-97082142D01*
X67730714Y-97010714D01*
X67659285Y-96867857D01*
X67659285Y-96439285D01*
X67730714Y-96296428D01*
X67802142Y-96225000D01*
X67945000Y-96153571D01*
X68230714Y-96153571D01*
X68373571Y-96225000D01*
X69016428Y-97153571D02*
X69016428Y-95653571D01*
X69659285Y-97153571D02*
X69659285Y-96367857D01*
X69587857Y-96225000D01*
X69445000Y-96153571D01*
X69230714Y-96153571D01*
X69087857Y-96225000D01*
X69016428Y-96296428D01*
X50730714Y-99632142D02*
X50945000Y-99703571D01*
X51302142Y-99703571D01*
X51445000Y-99632142D01*
X51516428Y-99560714D01*
X51587857Y-99417857D01*
X51587857Y-99275000D01*
X51516428Y-99132142D01*
X51445000Y-99060714D01*
X51302142Y-98989285D01*
X51016428Y-98917857D01*
X50873571Y-98846428D01*
X50802142Y-98775000D01*
X50730714Y-98632142D01*
X50730714Y-98489285D01*
X50802142Y-98346428D01*
X50873571Y-98275000D01*
X51016428Y-98203571D01*
X51373571Y-98203571D01*
X51587857Y-98275000D01*
X52873571Y-99632142D02*
X52730714Y-99703571D01*
X52445000Y-99703571D01*
X52302142Y-99632142D01*
X52230714Y-99560714D01*
X52159285Y-99417857D01*
X52159285Y-98989285D01*
X52230714Y-98846428D01*
X52302142Y-98775000D01*
X52445000Y-98703571D01*
X52730714Y-98703571D01*
X52873571Y-98775000D01*
X53516428Y-99703571D02*
X53516428Y-98703571D01*
X53516428Y-98989285D02*
X53587857Y-98846428D01*
X53659285Y-98775000D01*
X53802142Y-98703571D01*
X53945000Y-98703571D01*
X55016428Y-99632142D02*
X54873571Y-99703571D01*
X54587857Y-99703571D01*
X54445000Y-99632142D01*
X54373571Y-99489285D01*
X54373571Y-98917857D01*
X54445000Y-98775000D01*
X54587857Y-98703571D01*
X54873571Y-98703571D01*
X55016428Y-98775000D01*
X55087857Y-98917857D01*
X55087857Y-99060714D01*
X54373571Y-99203571D01*
X55587857Y-98703571D02*
X55873571Y-99703571D01*
X56159285Y-98989285D01*
X56445000Y-99703571D01*
X56730714Y-98703571D01*
X58230714Y-98203571D02*
X59087857Y-98203571D01*
X58659285Y-99703571D02*
X58659285Y-98203571D01*
X60159285Y-99632142D02*
X60016428Y-99703571D01*
X59730714Y-99703571D01*
X59587857Y-99632142D01*
X59516428Y-99489285D01*
X59516428Y-98917857D01*
X59587857Y-98775000D01*
X59730714Y-98703571D01*
X60016428Y-98703571D01*
X60159285Y-98775000D01*
X60230714Y-98917857D01*
X60230714Y-99060714D01*
X59516428Y-99203571D01*
X60873571Y-99703571D02*
X60873571Y-98703571D01*
X60873571Y-98989285D02*
X60945000Y-98846428D01*
X61016428Y-98775000D01*
X61159285Y-98703571D01*
X61302142Y-98703571D01*
X61802142Y-99703571D02*
X61802142Y-98703571D01*
X61802142Y-98846428D02*
X61873571Y-98775000D01*
X62016428Y-98703571D01*
X62230714Y-98703571D01*
X62373571Y-98775000D01*
X62445000Y-98917857D01*
X62445000Y-99703571D01*
X62445000Y-98917857D02*
X62516428Y-98775000D01*
X62659285Y-98703571D01*
X62873571Y-98703571D01*
X63016428Y-98775000D01*
X63087857Y-98917857D01*
X63087857Y-99703571D01*
X63802142Y-99703571D02*
X63802142Y-98703571D01*
X63802142Y-98203571D02*
X63730714Y-98275000D01*
X63802142Y-98346428D01*
X63873571Y-98275000D01*
X63802142Y-98203571D01*
X63802142Y-98346428D01*
X64516428Y-98703571D02*
X64516428Y-99703571D01*
X64516428Y-98846428D02*
X64587857Y-98775000D01*
X64730714Y-98703571D01*
X64945000Y-98703571D01*
X65087857Y-98775000D01*
X65159285Y-98917857D01*
X65159285Y-99703571D01*
X66516428Y-99703571D02*
X66516428Y-98917857D01*
X66445000Y-98775000D01*
X66302142Y-98703571D01*
X66016428Y-98703571D01*
X65873571Y-98775000D01*
X66516428Y-99632142D02*
X66373571Y-99703571D01*
X66016428Y-99703571D01*
X65873571Y-99632142D01*
X65802142Y-99489285D01*
X65802142Y-99346428D01*
X65873571Y-99203571D01*
X66016428Y-99132142D01*
X66373571Y-99132142D01*
X66516428Y-99060714D01*
X67445000Y-99703571D02*
X67302142Y-99632142D01*
X67230714Y-99489285D01*
X67230714Y-98203571D01*
D11*
X75500000Y-108750000D02*
X69750000Y-108750000D01*
X96250000Y-101500000D02*
X75500000Y-108750000D01*
X96500000Y-85000000D02*
X75250000Y-99250000D01*
X75250000Y-99250000D02*
X68250000Y-99250000D01*
X96750000Y-73750000D02*
X75250000Y-99250000D01*
D10*
X137766428Y-71378571D02*
X137052142Y-71378571D01*
X137052142Y-69878571D01*
X138052142Y-69878571D02*
X138909285Y-69878571D01*
X138480714Y-71378571D02*
X138480714Y-69878571D01*
X139195000Y-69878571D02*
X139695000Y-71378571D01*
X140195000Y-69878571D01*
X140695000Y-70807142D02*
X141837857Y-70807142D01*
X142766428Y-70521428D02*
X142623571Y-70450000D01*
X142552142Y-70378571D01*
X142480714Y-70235714D01*
X142480714Y-70164285D01*
X142552142Y-70021428D01*
X142623571Y-69950000D01*
X142766428Y-69878571D01*
X143052142Y-69878571D01*
X143195000Y-69950000D01*
X143266428Y-70021428D01*
X143337857Y-70164285D01*
X143337857Y-70235714D01*
X143266428Y-70378571D01*
X143195000Y-70450000D01*
X143052142Y-70521428D01*
X142766428Y-70521428D01*
X142623571Y-70592857D01*
X142552142Y-70664285D01*
X142480714Y-70807142D01*
X142480714Y-71092857D01*
X142552142Y-71235714D01*
X142623571Y-71307142D01*
X142766428Y-71378571D01*
X143052142Y-71378571D01*
X143195000Y-71307142D01*
X143266428Y-71235714D01*
X143337857Y-71092857D01*
X143337857Y-70807142D01*
X143266428Y-70664285D01*
X143195000Y-70592857D01*
X143052142Y-70521428D01*
X144766428Y-71378571D02*
X143909285Y-71378571D01*
X144337857Y-71378571D02*
X144337857Y-69878571D01*
X144195000Y-70092857D01*
X144052142Y-70235714D01*
X143909285Y-70307142D01*
X145266428Y-69878571D02*
X146266428Y-69878571D01*
X145623571Y-71378571D01*
X146909285Y-71307142D02*
X146909285Y-71378571D01*
X146837857Y-71521428D01*
X146766428Y-71592857D01*
X149409285Y-71378571D02*
X148695000Y-71378571D01*
X148695000Y-69878571D01*
X149695000Y-69878571D02*
X150552142Y-69878571D01*
X150123571Y-71378571D02*
X150123571Y-69878571D01*
X150837857Y-69878571D02*
X151337857Y-71378571D01*
X151837857Y-69878571D01*
X152337857Y-70807142D02*
X153480714Y-70807142D01*
X154409285Y-70521428D02*
X154266428Y-70450000D01*
X154195000Y-70378571D01*
X154123571Y-70235714D01*
X154123571Y-70164285D01*
X154195000Y-70021428D01*
X154266428Y-69950000D01*
X154409285Y-69878571D01*
X154695000Y-69878571D01*
X154837857Y-69950000D01*
X154909285Y-70021428D01*
X154980714Y-70164285D01*
X154980714Y-70235714D01*
X154909285Y-70378571D01*
X154837857Y-70450000D01*
X154695000Y-70521428D01*
X154409285Y-70521428D01*
X154266428Y-70592857D01*
X154195000Y-70664285D01*
X154123571Y-70807142D01*
X154123571Y-71092857D01*
X154195000Y-71235714D01*
X154266428Y-71307142D01*
X154409285Y-71378571D01*
X154695000Y-71378571D01*
X154837857Y-71307142D01*
X154909285Y-71235714D01*
X154980714Y-71092857D01*
X154980714Y-70807142D01*
X154909285Y-70664285D01*
X154837857Y-70592857D01*
X154695000Y-70521428D01*
X156409285Y-71378571D02*
X155552142Y-71378571D01*
X155980714Y-71378571D02*
X155980714Y-69878571D01*
X155837857Y-70092857D01*
X155695000Y-70235714D01*
X155552142Y-70307142D01*
X157695000Y-69878571D02*
X157409285Y-69878571D01*
X157266428Y-69950000D01*
X157195000Y-70021428D01*
X157052142Y-70235714D01*
X156980714Y-70521428D01*
X156980714Y-71092857D01*
X157052142Y-71235714D01*
X157123571Y-71307142D01*
X157266428Y-71378571D01*
X157552142Y-71378571D01*
X157695000Y-71307142D01*
X157766428Y-71235714D01*
X157837857Y-71092857D01*
X157837857Y-70735714D01*
X157766428Y-70592857D01*
X157695000Y-70521428D01*
X157552142Y-70450000D01*
X157266428Y-70450000D01*
X157123571Y-70521428D01*
X157052142Y-70592857D01*
X156980714Y-70735714D01*
X158552142Y-71307142D02*
X158552142Y-71378571D01*
X158480714Y-71521428D01*
X158409285Y-71592857D01*
X136980714Y-73857142D02*
X137195000Y-73928571D01*
X137552142Y-73928571D01*
X137695000Y-73857142D01*
X137766428Y-73785714D01*
X137837857Y-73642857D01*
X137837857Y-73500000D01*
X137766428Y-73357142D01*
X137695000Y-73285714D01*
X137552142Y-73214285D01*
X137266428Y-73142857D01*
X137123571Y-73071428D01*
X137052142Y-73000000D01*
X136980714Y-72857142D01*
X136980714Y-72714285D01*
X137052142Y-72571428D01*
X137123571Y-72500000D01*
X137266428Y-72428571D01*
X137623571Y-72428571D01*
X137837857Y-72500000D01*
X138980714Y-73142857D02*
X138480714Y-73142857D01*
X138480714Y-73928571D02*
X138480714Y-72428571D01*
X139195000Y-72428571D01*
X139766428Y-73928571D02*
X139766428Y-72428571D01*
X139766428Y-73142857D02*
X140623571Y-73142857D01*
X140623571Y-73928571D02*
X140623571Y-72428571D01*
X141980714Y-72428571D02*
X141695000Y-72428571D01*
X141552142Y-72500000D01*
X141480714Y-72571428D01*
X141337857Y-72785714D01*
X141266428Y-73071428D01*
X141266428Y-73642857D01*
X141337857Y-73785714D01*
X141409285Y-73857142D01*
X141552142Y-73928571D01*
X141837857Y-73928571D01*
X141980714Y-73857142D01*
X142052142Y-73785714D01*
X142123571Y-73642857D01*
X142123571Y-73285714D01*
X142052142Y-73142857D01*
X141980714Y-73071428D01*
X141837857Y-73000000D01*
X141552142Y-73000000D01*
X141409285Y-73071428D01*
X141337857Y-73142857D01*
X141266428Y-73285714D01*
X143552142Y-73928571D02*
X142695000Y-73928571D01*
X143123571Y-73928571D02*
X143123571Y-72428571D01*
X142980714Y-72642857D01*
X142837857Y-72785714D01*
X142695000Y-72857142D01*
X144409285Y-73071428D02*
X144266428Y-73000000D01*
X144195000Y-72928571D01*
X144123571Y-72785714D01*
X144123571Y-72714285D01*
X144195000Y-72571428D01*
X144266428Y-72500000D01*
X144409285Y-72428571D01*
X144695000Y-72428571D01*
X144837857Y-72500000D01*
X144909285Y-72571428D01*
X144980714Y-72714285D01*
X144980714Y-72785714D01*
X144909285Y-72928571D01*
X144837857Y-73000000D01*
X144695000Y-73071428D01*
X144409285Y-73071428D01*
X144266428Y-73142857D01*
X144195000Y-73214285D01*
X144123571Y-73357142D01*
X144123571Y-73642857D01*
X144195000Y-73785714D01*
X144266428Y-73857142D01*
X144409285Y-73928571D01*
X144695000Y-73928571D01*
X144837857Y-73857142D01*
X144909285Y-73785714D01*
X144980714Y-73642857D01*
X144980714Y-73357142D01*
X144909285Y-73214285D01*
X144837857Y-73142857D01*
X144695000Y-73071428D01*
X145552142Y-73500000D02*
X146266428Y-73500000D01*
X145409285Y-73928571D02*
X145909285Y-72428571D01*
X146409285Y-73928571D01*
X146909285Y-73357142D02*
X148052142Y-73357142D01*
X148623571Y-72428571D02*
X149552142Y-72428571D01*
X149052142Y-73000000D01*
X149266428Y-73000000D01*
X149409285Y-73071428D01*
X149480714Y-73142857D01*
X149552142Y-73285714D01*
X149552142Y-73642857D01*
X149480714Y-73785714D01*
X149409285Y-73857142D01*
X149266428Y-73928571D01*
X148837857Y-73928571D01*
X148695000Y-73857142D01*
X148623571Y-73785714D01*
X150052142Y-72428571D02*
X151052142Y-73928571D01*
X151052142Y-72428571D02*
X150052142Y-73928571D01*
X151695000Y-73857142D02*
X151695000Y-73928571D01*
X151623571Y-74071428D01*
X151552142Y-74142857D01*
X154123571Y-73928571D02*
X154123571Y-73142857D01*
X154052142Y-73000000D01*
X153909285Y-72928571D01*
X153623571Y-72928571D01*
X153480714Y-73000000D01*
X154123571Y-73857142D02*
X153980714Y-73928571D01*
X153623571Y-73928571D01*
X153480714Y-73857142D01*
X153409285Y-73714285D01*
X153409285Y-73571428D01*
X153480714Y-73428571D01*
X153623571Y-73357142D01*
X153980714Y-73357142D01*
X154123571Y-73285714D01*
X154837857Y-72928571D02*
X154837857Y-73928571D01*
X154837857Y-73071428D02*
X154909285Y-73000000D01*
X155052142Y-72928571D01*
X155266428Y-72928571D01*
X155409285Y-73000000D01*
X155480714Y-73142857D01*
X155480714Y-73928571D01*
X156837857Y-73928571D02*
X156837857Y-72428571D01*
X156837857Y-73857142D02*
X156695000Y-73928571D01*
X156409285Y-73928571D01*
X156266428Y-73857142D01*
X156195000Y-73785714D01*
X156123571Y-73642857D01*
X156123571Y-73214285D01*
X156195000Y-73071428D01*
X156266428Y-73000000D01*
X156409285Y-72928571D01*
X156695000Y-72928571D01*
X156837857Y-73000000D01*
X137052142Y-76478571D02*
X137052142Y-74978571D01*
X137552142Y-76050000D01*
X138052142Y-74978571D01*
X138052142Y-76478571D01*
X139409285Y-76478571D02*
X139409285Y-75692857D01*
X139337857Y-75550000D01*
X139195000Y-75478571D01*
X138909285Y-75478571D01*
X138766428Y-75550000D01*
X139409285Y-76407142D02*
X139266428Y-76478571D01*
X138909285Y-76478571D01*
X138766428Y-76407142D01*
X138695000Y-76264285D01*
X138695000Y-76121428D01*
X138766428Y-75978571D01*
X138909285Y-75907142D01*
X139266428Y-75907142D01*
X139409285Y-75835714D01*
X140123571Y-75478571D02*
X140123571Y-76478571D01*
X140123571Y-75621428D02*
X140195000Y-75550000D01*
X140337857Y-75478571D01*
X140552142Y-75478571D01*
X140695000Y-75550000D01*
X140766428Y-75692857D01*
X140766428Y-76478571D01*
X141337857Y-75478571D02*
X141695000Y-76478571D01*
X142052142Y-75478571D02*
X141695000Y-76478571D01*
X141552142Y-76835714D01*
X141480714Y-76907142D01*
X141337857Y-76978571D01*
X143980714Y-76478571D02*
X143837857Y-76407142D01*
X143766428Y-76335714D01*
X143695000Y-76192857D01*
X143695000Y-75764285D01*
X143766428Y-75621428D01*
X143837857Y-75550000D01*
X143980714Y-75478571D01*
X144195000Y-75478571D01*
X144337857Y-75550000D01*
X144409285Y-75621428D01*
X144480714Y-75764285D01*
X144480714Y-76192857D01*
X144409285Y-76335714D01*
X144337857Y-76407142D01*
X144195000Y-76478571D01*
X143980714Y-76478571D01*
X144909285Y-75478571D02*
X145480714Y-75478571D01*
X145123571Y-74978571D02*
X145123571Y-76264285D01*
X145195000Y-76407142D01*
X145337857Y-76478571D01*
X145480714Y-76478571D01*
X145980714Y-76478571D02*
X145980714Y-74978571D01*
X146623571Y-76478571D02*
X146623571Y-75692857D01*
X146552142Y-75550000D01*
X146409285Y-75478571D01*
X146195000Y-75478571D01*
X146052142Y-75550000D01*
X145980714Y-75621428D01*
X147909285Y-76407142D02*
X147766428Y-76478571D01*
X147480714Y-76478571D01*
X147337857Y-76407142D01*
X147266428Y-76264285D01*
X147266428Y-75692857D01*
X147337857Y-75550000D01*
X147480714Y-75478571D01*
X147766428Y-75478571D01*
X147909285Y-75550000D01*
X147980714Y-75692857D01*
X147980714Y-75835714D01*
X147266428Y-75978571D01*
X148623571Y-76478571D02*
X148623571Y-75478571D01*
X148623571Y-75764285D02*
X148695000Y-75621428D01*
X148766428Y-75550000D01*
X148909285Y-75478571D01*
X149052142Y-75478571D01*
X149480714Y-76407142D02*
X149623571Y-76478571D01*
X149909285Y-76478571D01*
X150052142Y-76407142D01*
X150123571Y-76264285D01*
X150123571Y-76192857D01*
X150052142Y-76050000D01*
X149909285Y-75978571D01*
X149695000Y-75978571D01*
X149552142Y-75907142D01*
X149480714Y-75764285D01*
X149480714Y-75692857D01*
X149552142Y-75550000D01*
X149695000Y-75478571D01*
X149909285Y-75478571D01*
X150052142Y-75550000D01*
X151766428Y-75478571D02*
X152052142Y-76478571D01*
X152337857Y-75764285D01*
X152623571Y-76478571D01*
X152909285Y-75478571D01*
X153480714Y-76478571D02*
X153480714Y-75478571D01*
X153480714Y-74978571D02*
X153409285Y-75050000D01*
X153480714Y-75121428D01*
X153552142Y-75050000D01*
X153480714Y-74978571D01*
X153480714Y-75121428D01*
X154409285Y-76478571D02*
X154266428Y-76407142D01*
X154195000Y-76264285D01*
X154195000Y-74978571D01*
X155195000Y-76478571D02*
X155052142Y-76407142D01*
X154980714Y-76264285D01*
X154980714Y-74978571D01*
X156766428Y-75478571D02*
X157052142Y-76478571D01*
X157337857Y-75764285D01*
X157623571Y-76478571D01*
X157909285Y-75478571D01*
X158695000Y-76478571D02*
X158552142Y-76407142D01*
X158480714Y-76335714D01*
X158409285Y-76192857D01*
X158409285Y-75764285D01*
X158480714Y-75621428D01*
X158552142Y-75550000D01*
X158695000Y-75478571D01*
X158909285Y-75478571D01*
X159052142Y-75550000D01*
X159123571Y-75621428D01*
X159195000Y-75764285D01*
X159195000Y-76192857D01*
X159123571Y-76335714D01*
X159052142Y-76407142D01*
X158909285Y-76478571D01*
X158695000Y-76478571D01*
X159837857Y-76478571D02*
X159837857Y-75478571D01*
X159837857Y-75764285D02*
X159909285Y-75621428D01*
X159980714Y-75550000D01*
X160123571Y-75478571D01*
X160266428Y-75478571D01*
X160766428Y-76478571D02*
X160766428Y-74978571D01*
X160909285Y-75907142D02*
X161337857Y-76478571D01*
X161337857Y-75478571D02*
X160766428Y-76050000D01*
D11*
X131500000Y-75500000D02*
X135250000Y-75500000D01*
X117250000Y-82500000D02*
X131500000Y-75500000D01*
D10*
X150730714Y-87546428D02*
X150802142Y-87475000D01*
X150945000Y-87403571D01*
X151302142Y-87403571D01*
X151445000Y-87475000D01*
X151516428Y-87546428D01*
X151587857Y-87689285D01*
X151587857Y-87832142D01*
X151516428Y-88046428D01*
X150659285Y-88903571D01*
X151587857Y-88903571D01*
X152230714Y-88903571D02*
X152230714Y-87403571D01*
X152373571Y-88332142D02*
X152802142Y-88903571D01*
X152802142Y-87903571D02*
X152230714Y-88475000D01*
X155373571Y-88903571D02*
X154516428Y-88903571D01*
X154945000Y-88903571D02*
X154945000Y-87403571D01*
X154802142Y-87617857D01*
X154659285Y-87760714D01*
X154516428Y-87832142D01*
X157087857Y-87332142D02*
X155802142Y-89260714D01*
X157516428Y-87546428D02*
X157587857Y-87475000D01*
X157730714Y-87403571D01*
X158087857Y-87403571D01*
X158230714Y-87475000D01*
X158302142Y-87546428D01*
X158373571Y-87689285D01*
X158373571Y-87832142D01*
X158302142Y-88046428D01*
X157445000Y-88903571D01*
X158373571Y-88903571D01*
X160016428Y-87403571D02*
X160373571Y-88903571D01*
X160659285Y-87832142D01*
X160945000Y-88903571D01*
X161302142Y-87403571D01*
X162516428Y-88903571D02*
X162516428Y-88117857D01*
X162445000Y-87975000D01*
X162302142Y-87903571D01*
X162016428Y-87903571D01*
X161873571Y-87975000D01*
X162516428Y-88832142D02*
X162373571Y-88903571D01*
X162016428Y-88903571D01*
X161873571Y-88832142D01*
X161802142Y-88689285D01*
X161802142Y-88546428D01*
X161873571Y-88403571D01*
X162016428Y-88332142D01*
X162373571Y-88332142D01*
X162516428Y-88260714D01*
X163016428Y-87903571D02*
X163587857Y-87903571D01*
X163230714Y-87403571D02*
X163230714Y-88689285D01*
X163302142Y-88832142D01*
X163445000Y-88903571D01*
X163587857Y-88903571D01*
X163873571Y-87903571D02*
X164445000Y-87903571D01*
X164087857Y-87403571D02*
X164087857Y-88689285D01*
X164159285Y-88832142D01*
X164302142Y-88903571D01*
X164445000Y-88903571D01*
X151516428Y-89953571D02*
X150802142Y-89953571D01*
X150730714Y-90667857D01*
X150802142Y-90596428D01*
X150945000Y-90525000D01*
X151302142Y-90525000D01*
X151445000Y-90596428D01*
X151516428Y-90667857D01*
X151587857Y-90810714D01*
X151587857Y-91167857D01*
X151516428Y-91310714D01*
X151445000Y-91382142D01*
X151302142Y-91453571D01*
X150945000Y-91453571D01*
X150802142Y-91382142D01*
X150730714Y-91310714D01*
X152159285Y-91453571D02*
X153302142Y-89953571D01*
X152373571Y-89953571D02*
X152516428Y-90025000D01*
X152587857Y-90167857D01*
X152516428Y-90310714D01*
X152373571Y-90382142D01*
X152230714Y-90310714D01*
X152159285Y-90167857D01*
X152230714Y-90025000D01*
X152373571Y-89953571D01*
X153230714Y-91382142D02*
X153302142Y-91239285D01*
X153230714Y-91096428D01*
X153087857Y-91025000D01*
X152945000Y-91096428D01*
X152873571Y-91239285D01*
X152945000Y-91382142D01*
X153087857Y-91453571D01*
X153230714Y-91382142D01*
X155945000Y-91453571D02*
X155445000Y-90739285D01*
X155087857Y-91453571D02*
X155087857Y-89953571D01*
X155659285Y-89953571D01*
X155802142Y-90025000D01*
X155873571Y-90096428D01*
X155945000Y-90239285D01*
X155945000Y-90453571D01*
X155873571Y-90596428D01*
X155802142Y-90667857D01*
X155659285Y-90739285D01*
X155087857Y-90739285D01*
X157159285Y-91382142D02*
X157016428Y-91453571D01*
X156730714Y-91453571D01*
X156587857Y-91382142D01*
X156516428Y-91239285D01*
X156516428Y-90667857D01*
X156587857Y-90525000D01*
X156730714Y-90453571D01*
X157016428Y-90453571D01*
X157159285Y-90525000D01*
X157230714Y-90667857D01*
X157230714Y-90810714D01*
X156516428Y-90953571D01*
X157802142Y-91382142D02*
X157945000Y-91453571D01*
X158230714Y-91453571D01*
X158373571Y-91382142D01*
X158445000Y-91239285D01*
X158445000Y-91167857D01*
X158373571Y-91025000D01*
X158230714Y-90953571D01*
X158016428Y-90953571D01*
X157873571Y-90882142D01*
X157802142Y-90739285D01*
X157802142Y-90667857D01*
X157873571Y-90525000D01*
X158016428Y-90453571D01*
X158230714Y-90453571D01*
X158373571Y-90525000D01*
X159087857Y-91453571D02*
X159087857Y-90453571D01*
X159087857Y-89953571D02*
X159016428Y-90025000D01*
X159087857Y-90096428D01*
X159159285Y-90025000D01*
X159087857Y-89953571D01*
X159087857Y-90096428D01*
X159730714Y-91382142D02*
X159873571Y-91453571D01*
X160159285Y-91453571D01*
X160302142Y-91382142D01*
X160373571Y-91239285D01*
X160373571Y-91167857D01*
X160302142Y-91025000D01*
X160159285Y-90953571D01*
X159945000Y-90953571D01*
X159802142Y-90882142D01*
X159730714Y-90739285D01*
X159730714Y-90667857D01*
X159802142Y-90525000D01*
X159945000Y-90453571D01*
X160159285Y-90453571D01*
X160302142Y-90525000D01*
X160802142Y-90453571D02*
X161373571Y-90453571D01*
X161016428Y-89953571D02*
X161016428Y-91239285D01*
X161087857Y-91382142D01*
X161230714Y-91453571D01*
X161373571Y-91453571D01*
X162087857Y-91453571D02*
X161945000Y-91382142D01*
X161873571Y-91310714D01*
X161802142Y-91167857D01*
X161802142Y-90739285D01*
X161873571Y-90596428D01*
X161945000Y-90525000D01*
X162087857Y-90453571D01*
X162302142Y-90453571D01*
X162445000Y-90525000D01*
X162516428Y-90596428D01*
X162587857Y-90739285D01*
X162587857Y-91167857D01*
X162516428Y-91310714D01*
X162445000Y-91382142D01*
X162302142Y-91453571D01*
X162087857Y-91453571D01*
X163230714Y-91453571D02*
X163230714Y-90453571D01*
X163230714Y-90739285D02*
X163302142Y-90596428D01*
X163373571Y-90525000D01*
X163516428Y-90453571D01*
X163659285Y-90453571D01*
X164087857Y-91382142D02*
X164230714Y-91453571D01*
X164516428Y-91453571D01*
X164659285Y-91382142D01*
X164730714Y-91239285D01*
X164730714Y-91167857D01*
X164659285Y-91025000D01*
X164516428Y-90953571D01*
X164302142Y-90953571D01*
X164159285Y-90882142D01*
X164087857Y-90739285D01*
X164087857Y-90667857D01*
X164159285Y-90525000D01*
X164302142Y-90453571D01*
X164516428Y-90453571D01*
X164659285Y-90525000D01*
D11*
X112750000Y-100500000D02*
X141750000Y-89750000D01*
X141750000Y-89750000D02*
X149250000Y-89750000D01*
X114250000Y-96500000D02*
X141750000Y-89750000D01*
D10*
X136321428Y-82892857D02*
X135821428Y-82892857D01*
X135821428Y-83678571D02*
X135821428Y-82178571D01*
X136535714Y-82178571D01*
X137321428Y-83678571D02*
X137178571Y-83607142D01*
X137107142Y-83464285D01*
X137107142Y-82178571D01*
X138535714Y-83678571D02*
X138535714Y-82892857D01*
X138464285Y-82750000D01*
X138321428Y-82678571D01*
X138035714Y-82678571D01*
X137892857Y-82750000D01*
X138535714Y-83607142D02*
X138392857Y-83678571D01*
X138035714Y-83678571D01*
X137892857Y-83607142D01*
X137821428Y-83464285D01*
X137821428Y-83321428D01*
X137892857Y-83178571D01*
X138035714Y-83107142D01*
X138392857Y-83107142D01*
X138535714Y-83035714D01*
X139035714Y-82678571D02*
X139607142Y-82678571D01*
X139250000Y-82178571D02*
X139250000Y-83464285D01*
X139321428Y-83607142D01*
X139464285Y-83678571D01*
X139607142Y-83678571D01*
X141178571Y-83607142D02*
X141321428Y-83678571D01*
X141607142Y-83678571D01*
X141750000Y-83607142D01*
X141821428Y-83464285D01*
X141821428Y-83392857D01*
X141750000Y-83250000D01*
X141607142Y-83178571D01*
X141392857Y-83178571D01*
X141250000Y-83107142D01*
X141178571Y-82964285D01*
X141178571Y-82892857D01*
X141250000Y-82750000D01*
X141392857Y-82678571D01*
X141607142Y-82678571D01*
X141750000Y-82750000D01*
X142464285Y-83678571D02*
X142464285Y-82678571D01*
X142464285Y-82178571D02*
X142392857Y-82250000D01*
X142464285Y-82321428D01*
X142535714Y-82250000D01*
X142464285Y-82178571D01*
X142464285Y-82321428D01*
X143821428Y-83678571D02*
X143821428Y-82178571D01*
X143821428Y-83607142D02*
X143678571Y-83678571D01*
X143392857Y-83678571D01*
X143250000Y-83607142D01*
X143178571Y-83535714D01*
X143107142Y-83392857D01*
X143107142Y-82964285D01*
X143178571Y-82821428D01*
X143250000Y-82750000D01*
X143392857Y-82678571D01*
X143678571Y-82678571D01*
X143821428Y-82750000D01*
X145107142Y-83607142D02*
X144964285Y-83678571D01*
X144678571Y-83678571D01*
X144535714Y-83607142D01*
X144464285Y-83464285D01*
X144464285Y-82892857D01*
X144535714Y-82750000D01*
X144678571Y-82678571D01*
X144964285Y-82678571D01*
X145107142Y-82750000D01*
X145178571Y-82892857D01*
X145178571Y-83035714D01*
X144464285Y-83178571D01*
X147178571Y-83678571D02*
X147035714Y-83607142D01*
X146964285Y-83535714D01*
X146892857Y-83392857D01*
X146892857Y-82964285D01*
X146964285Y-82821428D01*
X147035714Y-82750000D01*
X147178571Y-82678571D01*
X147392857Y-82678571D01*
X147535714Y-82750000D01*
X147607142Y-82821428D01*
X147678571Y-82964285D01*
X147678571Y-83392857D01*
X147607142Y-83535714D01*
X147535714Y-83607142D01*
X147392857Y-83678571D01*
X147178571Y-83678571D01*
X148107142Y-82678571D02*
X148678571Y-82678571D01*
X148321428Y-83678571D02*
X148321428Y-82392857D01*
X148392857Y-82250000D01*
X148535714Y-82178571D01*
X148678571Y-82178571D01*
X151035714Y-83678571D02*
X150321428Y-83678571D01*
X150321428Y-82178571D01*
X151535714Y-82892857D02*
X152035714Y-82892857D01*
X152250000Y-83678571D02*
X151535714Y-83678571D01*
X151535714Y-82178571D01*
X152250000Y-82178571D01*
X152892857Y-83678571D02*
X152892857Y-82178571D01*
X153249999Y-82178571D01*
X153464285Y-82250000D01*
X153607142Y-82392857D01*
X153678571Y-82535714D01*
X153749999Y-82821428D01*
X153749999Y-83035714D01*
X153678571Y-83321428D01*
X153607142Y-83464285D01*
X153464285Y-83607142D01*
X153249999Y-83678571D01*
X152892857Y-83678571D01*
D11*
X131500000Y-83000000D02*
X135000000Y-83000000D01*
X110000000Y-93500000D02*
X131500000Y-83000000D01*
D10*
X127778571Y-61785714D02*
X128778571Y-61785714D01*
X127207142Y-62142857D02*
X128278571Y-62500000D01*
X128278571Y-61571428D01*
X128635714Y-61000000D02*
X128707142Y-60928571D01*
X128778571Y-61000000D01*
X128707142Y-61071428D01*
X128635714Y-61000000D01*
X128778571Y-61000000D01*
X127278571Y-60000000D02*
X127278571Y-59857142D01*
X127350000Y-59714285D01*
X127421428Y-59642857D01*
X127564285Y-59571428D01*
X127850000Y-59500000D01*
X128207142Y-59500000D01*
X128492857Y-59571428D01*
X128635714Y-59642857D01*
X128707142Y-59714285D01*
X128778571Y-59857142D01*
X128778571Y-60000000D01*
X128707142Y-60142857D01*
X128635714Y-60214285D01*
X128492857Y-60285714D01*
X128207142Y-60357142D01*
X127850000Y-60357142D01*
X127564285Y-60285714D01*
X127421428Y-60214285D01*
X127350000Y-60142857D01*
X127278571Y-60000000D01*
X127278571Y-58571428D02*
X127278571Y-58428571D01*
X127350000Y-58285714D01*
X127421428Y-58214285D01*
X127564285Y-58142857D01*
X127850000Y-58071428D01*
X128207142Y-58071428D01*
X128492857Y-58142857D01*
X128635714Y-58214285D01*
X128707142Y-58285714D01*
X128778571Y-58428571D01*
X128778571Y-58571428D01*
X128707142Y-58714285D01*
X128635714Y-58785714D01*
X128492857Y-58857142D01*
X128207142Y-58928571D01*
X127850000Y-58928571D01*
X127564285Y-58857142D01*
X127421428Y-58785714D01*
X127350000Y-58714285D01*
X127278571Y-58571428D01*
X127278571Y-57142857D02*
X127278571Y-57000000D01*
X127350000Y-56857142D01*
X127421428Y-56785714D01*
X127564285Y-56714285D01*
X127850000Y-56642857D01*
X128207142Y-56642857D01*
X128492857Y-56714285D01*
X128635714Y-56785714D01*
X128707142Y-56857142D01*
X128778571Y-57000000D01*
X128778571Y-57142857D01*
X128707142Y-57285714D01*
X128635714Y-57357142D01*
X128492857Y-57428571D01*
X128207142Y-57500000D01*
X127850000Y-57500000D01*
X127564285Y-57428571D01*
X127421428Y-57357142D01*
X127350000Y-57285714D01*
X127278571Y-57142857D01*
X128778571Y-54857142D02*
X127778571Y-54857142D01*
X127921428Y-54857142D02*
X127850000Y-54785714D01*
X127778571Y-54642857D01*
X127778571Y-54428571D01*
X127850000Y-54285714D01*
X127992857Y-54214285D01*
X128778571Y-54214285D01*
X127992857Y-54214285D02*
X127850000Y-54142857D01*
X127778571Y-54000000D01*
X127778571Y-53785714D01*
X127850000Y-53642857D01*
X127992857Y-53571428D01*
X128778571Y-53571428D01*
X128778571Y-52857142D02*
X127778571Y-52857142D01*
X127921428Y-52857142D02*
X127850000Y-52785714D01*
X127778571Y-52642857D01*
X127778571Y-52428571D01*
X127850000Y-52285714D01*
X127992857Y-52214285D01*
X128778571Y-52214285D01*
X127992857Y-52214285D02*
X127850000Y-52142857D01*
X127778571Y-52000000D01*
X127778571Y-51785714D01*
X127850000Y-51642857D01*
X127992857Y-51571428D01*
X128778571Y-51571428D01*
X126000000Y-59000000D02*
X126000000Y-55000000D01*
X120000000Y-59000000D02*
X126586421Y-59000000D01*
X120000000Y-55000000D02*
X126586421Y-55000000D01*
X126000000Y-55000000D02*
X126586421Y-56126504D01*
X126000000Y-55000000D02*
X125413579Y-56126504D01*
X126000000Y-59000000D02*
X126586421Y-57873496D01*
X126000000Y-59000000D02*
X125413579Y-57873496D01*
X117214285Y-48578571D02*
X117214285Y-49578571D01*
X116857142Y-48007142D02*
X116500000Y-49078571D01*
X117428571Y-49078571D01*
X118000000Y-49435714D02*
X118071428Y-49507142D01*
X118000000Y-49578571D01*
X117928571Y-49507142D01*
X118000000Y-49435714D01*
X118000000Y-49578571D01*
X119000000Y-48078571D02*
X119142857Y-48078571D01*
X119285714Y-48150000D01*
X119357142Y-48221428D01*
X119428571Y-48364285D01*
X119500000Y-48650000D01*
X119500000Y-49007142D01*
X119428571Y-49292857D01*
X119357142Y-49435714D01*
X119285714Y-49507142D01*
X119142857Y-49578571D01*
X119000000Y-49578571D01*
X118857142Y-49507142D01*
X118785714Y-49435714D01*
X118714285Y-49292857D01*
X118642857Y-49007142D01*
X118642857Y-48650000D01*
X118714285Y-48364285D01*
X118785714Y-48221428D01*
X118857142Y-48150000D01*
X119000000Y-48078571D01*
X120428571Y-48078571D02*
X120571428Y-48078571D01*
X120714285Y-48150000D01*
X120785714Y-48221428D01*
X120857142Y-48364285D01*
X120928571Y-48650000D01*
X120928571Y-49007142D01*
X120857142Y-49292857D01*
X120785714Y-49435714D01*
X120714285Y-49507142D01*
X120571428Y-49578571D01*
X120428571Y-49578571D01*
X120285714Y-49507142D01*
X120214285Y-49435714D01*
X120142857Y-49292857D01*
X120071428Y-49007142D01*
X120071428Y-48650000D01*
X120142857Y-48364285D01*
X120214285Y-48221428D01*
X120285714Y-48150000D01*
X120428571Y-48078571D01*
X121857142Y-48078571D02*
X122000000Y-48078571D01*
X122142857Y-48150000D01*
X122214285Y-48221428D01*
X122285714Y-48364285D01*
X122357142Y-48650000D01*
X122357142Y-49007142D01*
X122285714Y-49292857D01*
X122214285Y-49435714D01*
X122142857Y-49507142D01*
X122000000Y-49578571D01*
X121857142Y-49578571D01*
X121714285Y-49507142D01*
X121642857Y-49435714D01*
X121571428Y-49292857D01*
X121500000Y-49007142D01*
X121500000Y-48650000D01*
X121571428Y-48364285D01*
X121642857Y-48221428D01*
X121714285Y-48150000D01*
X121857142Y-48078571D01*
X124142857Y-49578571D02*
X124142857Y-48578571D01*
X124142857Y-48721428D02*
X124214285Y-48650000D01*
X124357142Y-48578571D01*
X124571428Y-48578571D01*
X124714285Y-48650000D01*
X124785714Y-48792857D01*
X124785714Y-49578571D01*
X124785714Y-48792857D02*
X124857142Y-48650000D01*
X125000000Y-48578571D01*
X125214285Y-48578571D01*
X125357142Y-48650000D01*
X125428571Y-48792857D01*
X125428571Y-49578571D01*
X126142857Y-49578571D02*
X126142857Y-48578571D01*
X126142857Y-48721428D02*
X126214285Y-48650000D01*
X126357142Y-48578571D01*
X126571428Y-48578571D01*
X126714285Y-48650000D01*
X126785714Y-48792857D01*
X126785714Y-49578571D01*
X126785714Y-48792857D02*
X126857142Y-48650000D01*
X127000000Y-48578571D01*
X127214285Y-48578571D01*
X127357142Y-48650000D01*
X127428571Y-48792857D01*
X127428571Y-49578571D01*
X120000000Y-51000000D02*
X124000000Y-51000000D01*
X120000000Y-59000000D02*
X120000000Y-50413579D01*
X124000000Y-59000000D02*
X124000000Y-50413579D01*
X124000000Y-51000000D02*
X122873496Y-51586421D01*
X124000000Y-51000000D02*
X122873496Y-50413579D01*
X120000000Y-51000000D02*
X121126504Y-51586421D01*
X120000000Y-51000000D02*
X121126504Y-50413579D01*
X81078571Y-87928571D02*
X81078571Y-88642857D01*
X81792857Y-88714285D01*
X81721428Y-88642857D01*
X81650000Y-88500000D01*
X81650000Y-88142857D01*
X81721428Y-88000000D01*
X81792857Y-87928571D01*
X81935714Y-87857142D01*
X82292857Y-87857142D01*
X82435714Y-87928571D01*
X82507142Y-88000000D01*
X82578571Y-88142857D01*
X82578571Y-88500000D01*
X82507142Y-88642857D01*
X82435714Y-88714285D01*
X81078571Y-86500000D02*
X81078571Y-87214285D01*
X81792857Y-87285714D01*
X81721428Y-87214285D01*
X81650000Y-87071428D01*
X81650000Y-86714285D01*
X81721428Y-86571428D01*
X81792857Y-86500000D01*
X81935714Y-86428571D01*
X82292857Y-86428571D01*
X82435714Y-86500000D01*
X82507142Y-86571428D01*
X82578571Y-86714285D01*
X82578571Y-87071428D01*
X82507142Y-87214285D01*
X82435714Y-87285714D01*
X82435714Y-85785714D02*
X82507142Y-85714285D01*
X82578571Y-85785714D01*
X82507142Y-85857142D01*
X82435714Y-85785714D01*
X82578571Y-85785714D01*
X81078571Y-84785714D02*
X81078571Y-84642857D01*
X81150000Y-84500000D01*
X81221428Y-84428571D01*
X81364285Y-84357142D01*
X81650000Y-84285714D01*
X82007142Y-84285714D01*
X82292857Y-84357142D01*
X82435714Y-84428571D01*
X82507142Y-84500000D01*
X82578571Y-84642857D01*
X82578571Y-84785714D01*
X82507142Y-84928571D01*
X82435714Y-85000000D01*
X82292857Y-85071428D01*
X82007142Y-85142857D01*
X81650000Y-85142857D01*
X81364285Y-85071428D01*
X81221428Y-85000000D01*
X81150000Y-84928571D01*
X81078571Y-84785714D01*
X81078571Y-83357142D02*
X81078571Y-83214285D01*
X81150000Y-83071428D01*
X81221428Y-83000000D01*
X81364285Y-82928571D01*
X81650000Y-82857142D01*
X82007142Y-82857142D01*
X82292857Y-82928571D01*
X82435714Y-83000000D01*
X82507142Y-83071428D01*
X82578571Y-83214285D01*
X82578571Y-83357142D01*
X82507142Y-83500000D01*
X82435714Y-83571428D01*
X82292857Y-83642857D01*
X82007142Y-83714285D01*
X81650000Y-83714285D01*
X81364285Y-83642857D01*
X81221428Y-83571428D01*
X81150000Y-83500000D01*
X81078571Y-83357142D01*
X81078571Y-81928571D02*
X81078571Y-81785714D01*
X81150000Y-81642857D01*
X81221428Y-81571428D01*
X81364285Y-81500000D01*
X81650000Y-81428571D01*
X82007142Y-81428571D01*
X82292857Y-81500000D01*
X82435714Y-81571428D01*
X82507142Y-81642857D01*
X82578571Y-81785714D01*
X82578571Y-81928571D01*
X82507142Y-82071428D01*
X82435714Y-82142857D01*
X82292857Y-82214285D01*
X82007142Y-82285714D01*
X81650000Y-82285714D01*
X81364285Y-82214285D01*
X81221428Y-82142857D01*
X81150000Y-82071428D01*
X81078571Y-81928571D01*
X82578571Y-79642857D02*
X81578571Y-79642857D01*
X81721428Y-79642857D02*
X81650000Y-79571428D01*
X81578571Y-79428571D01*
X81578571Y-79214285D01*
X81650000Y-79071428D01*
X81792857Y-79000000D01*
X82578571Y-79000000D01*
X81792857Y-79000000D02*
X81650000Y-78928571D01*
X81578571Y-78785714D01*
X81578571Y-78571428D01*
X81650000Y-78428571D01*
X81792857Y-78357142D01*
X82578571Y-78357142D01*
X82578571Y-77642857D02*
X81578571Y-77642857D01*
X81721428Y-77642857D02*
X81650000Y-77571428D01*
X81578571Y-77428571D01*
X81578571Y-77214285D01*
X81650000Y-77071428D01*
X81792857Y-77000000D01*
X82578571Y-77000000D01*
X81792857Y-77000000D02*
X81650000Y-76928571D01*
X81578571Y-76785714D01*
X81578571Y-76571428D01*
X81650000Y-76428571D01*
X81792857Y-76357142D01*
X82578571Y-76357142D01*
X84000000Y-110000000D02*
X84000000Y-55000000D01*
X89000000Y-110000000D02*
X83413579Y-110000000D01*
X89000000Y-55000000D02*
X83413579Y-55000000D01*
X84000000Y-55000000D02*
X84586421Y-56126504D01*
X84000000Y-55000000D02*
X83413579Y-56126504D01*
X84000000Y-110000000D02*
X84586421Y-108873496D01*
X84000000Y-110000000D02*
X83413579Y-108873496D01*
X100214285Y-114278571D02*
X101142857Y-114278571D01*
X100642857Y-114850000D01*
X100857142Y-114850000D01*
X101000000Y-114921428D01*
X101071428Y-114992857D01*
X101142857Y-115135714D01*
X101142857Y-115492857D01*
X101071428Y-115635714D01*
X101000000Y-115707142D01*
X100857142Y-115778571D01*
X100428571Y-115778571D01*
X100285714Y-115707142D01*
X100214285Y-115635714D01*
X102500000Y-114278571D02*
X101785714Y-114278571D01*
X101714285Y-114992857D01*
X101785714Y-114921428D01*
X101928571Y-114850000D01*
X102285714Y-114850000D01*
X102428571Y-114921428D01*
X102500000Y-114992857D01*
X102571428Y-115135714D01*
X102571428Y-115492857D01*
X102500000Y-115635714D01*
X102428571Y-115707142D01*
X102285714Y-115778571D01*
X101928571Y-115778571D01*
X101785714Y-115707142D01*
X101714285Y-115635714D01*
X103214285Y-115635714D02*
X103285714Y-115707142D01*
X103214285Y-115778571D01*
X103142857Y-115707142D01*
X103214285Y-115635714D01*
X103214285Y-115778571D01*
X104214285Y-114278571D02*
X104357142Y-114278571D01*
X104500000Y-114350000D01*
X104571428Y-114421428D01*
X104642857Y-114564285D01*
X104714285Y-114850000D01*
X104714285Y-115207142D01*
X104642857Y-115492857D01*
X104571428Y-115635714D01*
X104500000Y-115707142D01*
X104357142Y-115778571D01*
X104214285Y-115778571D01*
X104071428Y-115707142D01*
X104000000Y-115635714D01*
X103928571Y-115492857D01*
X103857142Y-115207142D01*
X103857142Y-114850000D01*
X103928571Y-114564285D01*
X104000000Y-114421428D01*
X104071428Y-114350000D01*
X104214285Y-114278571D01*
X105642857Y-114278571D02*
X105785714Y-114278571D01*
X105928571Y-114350000D01*
X106000000Y-114421428D01*
X106071428Y-114564285D01*
X106142857Y-114850000D01*
X106142857Y-115207142D01*
X106071428Y-115492857D01*
X106000000Y-115635714D01*
X105928571Y-115707142D01*
X105785714Y-115778571D01*
X105642857Y-115778571D01*
X105500000Y-115707142D01*
X105428571Y-115635714D01*
X105357142Y-115492857D01*
X105285714Y-115207142D01*
X105285714Y-114850000D01*
X105357142Y-114564285D01*
X105428571Y-114421428D01*
X105500000Y-114350000D01*
X105642857Y-114278571D01*
X107071428Y-114278571D02*
X107214285Y-114278571D01*
X107357142Y-114350000D01*
X107428571Y-114421428D01*
X107500000Y-114564285D01*
X107571428Y-114850000D01*
X107571428Y-115207142D01*
X107500000Y-115492857D01*
X107428571Y-115635714D01*
X107357142Y-115707142D01*
X107214285Y-115778571D01*
X107071428Y-115778571D01*
X106928571Y-115707142D01*
X106857142Y-115635714D01*
X106785714Y-115492857D01*
X106714285Y-115207142D01*
X106714285Y-114850000D01*
X106785714Y-114564285D01*
X106857142Y-114421428D01*
X106928571Y-114350000D01*
X107071428Y-114278571D01*
X109357142Y-115778571D02*
X109357142Y-114778571D01*
X109357142Y-114921428D02*
X109428571Y-114850000D01*
X109571428Y-114778571D01*
X109785714Y-114778571D01*
X109928571Y-114850000D01*
X110000000Y-114992857D01*
X110000000Y-115778571D01*
X110000000Y-114992857D02*
X110071428Y-114850000D01*
X110214285Y-114778571D01*
X110428571Y-114778571D01*
X110571428Y-114850000D01*
X110642857Y-114992857D01*
X110642857Y-115778571D01*
X111357142Y-115778571D02*
X111357142Y-114778571D01*
X111357142Y-114921428D02*
X111428571Y-114850000D01*
X111571428Y-114778571D01*
X111785714Y-114778571D01*
X111928571Y-114850000D01*
X112000000Y-114992857D01*
X112000000Y-115778571D01*
X112000000Y-114992857D02*
X112071428Y-114850000D01*
X112214285Y-114778571D01*
X112428571Y-114778571D01*
X112571428Y-114850000D01*
X112642857Y-114992857D01*
X112642857Y-115778571D01*
X89000000Y-113000000D02*
X124000000Y-113000000D01*
X89000000Y-110000000D02*
X89000000Y-113586421D01*
X124000000Y-110000000D02*
X124000000Y-113586421D01*
X124000000Y-113000000D02*
X122873496Y-113586421D01*
X124000000Y-113000000D02*
X122873496Y-112413579D01*
X89000000Y-113000000D02*
X90126504Y-113586421D01*
X89000000Y-113000000D02*
X90126504Y-112413579D01*
X139571428Y-98678571D02*
X139571428Y-97178571D01*
X140071428Y-98250000D01*
X140571428Y-97178571D01*
X140571428Y-98678571D01*
X141142857Y-97178571D02*
X142071428Y-97178571D01*
X141571428Y-97750000D01*
X141785714Y-97750000D01*
X141928571Y-97821428D01*
X142000000Y-97892857D01*
X142071428Y-98035714D01*
X142071428Y-98392857D01*
X142000000Y-98535714D01*
X141928571Y-98607142D01*
X141785714Y-98678571D01*
X141357142Y-98678571D01*
X141214285Y-98607142D01*
X141142857Y-98535714D01*
X144714285Y-98535714D02*
X144642857Y-98607142D01*
X144428571Y-98678571D01*
X144285714Y-98678571D01*
X144071428Y-98607142D01*
X143928571Y-98464285D01*
X143857142Y-98321428D01*
X143785714Y-98035714D01*
X143785714Y-97821428D01*
X143857142Y-97535714D01*
X143928571Y-97392857D01*
X144071428Y-97250000D01*
X144285714Y-97178571D01*
X144428571Y-97178571D01*
X144642857Y-97250000D01*
X144714285Y-97321428D01*
X145571428Y-98678571D02*
X145428571Y-98607142D01*
X145357142Y-98464285D01*
X145357142Y-97178571D01*
X146714285Y-98607142D02*
X146571428Y-98678571D01*
X146285714Y-98678571D01*
X146142857Y-98607142D01*
X146071428Y-98464285D01*
X146071428Y-97892857D01*
X146142857Y-97750000D01*
X146285714Y-97678571D01*
X146571428Y-97678571D01*
X146714285Y-97750000D01*
X146785714Y-97892857D01*
X146785714Y-98035714D01*
X146071428Y-98178571D01*
X148071428Y-98678571D02*
X148071428Y-97892857D01*
X148000000Y-97750000D01*
X147857142Y-97678571D01*
X147571428Y-97678571D01*
X147428571Y-97750000D01*
X148071428Y-98607142D02*
X147928571Y-98678571D01*
X147571428Y-98678571D01*
X147428571Y-98607142D01*
X147357142Y-98464285D01*
X147357142Y-98321428D01*
X147428571Y-98178571D01*
X147571428Y-98107142D01*
X147928571Y-98107142D01*
X148071428Y-98035714D01*
X148785714Y-98678571D02*
X148785714Y-97678571D01*
X148785714Y-97964285D02*
X148857142Y-97821428D01*
X148928571Y-97750000D01*
X149071428Y-97678571D01*
X149214285Y-97678571D01*
X150357142Y-98678571D02*
X150357142Y-97892857D01*
X150285714Y-97750000D01*
X150142857Y-97678571D01*
X149857142Y-97678571D01*
X149714285Y-97750000D01*
X150357142Y-98607142D02*
X150214285Y-98678571D01*
X149857142Y-98678571D01*
X149714285Y-98607142D01*
X149642857Y-98464285D01*
X149642857Y-98321428D01*
X149714285Y-98178571D01*
X149857142Y-98107142D01*
X150214285Y-98107142D01*
X150357142Y-98035714D01*
X151071428Y-97678571D02*
X151071428Y-98678571D01*
X151071428Y-97821428D02*
X151142857Y-97750000D01*
X151285714Y-97678571D01*
X151500000Y-97678571D01*
X151642857Y-97750000D01*
X151714285Y-97892857D01*
X151714285Y-98678571D01*
X153071428Y-98607142D02*
X152928571Y-98678571D01*
X152642857Y-98678571D01*
X152500000Y-98607142D01*
X152428571Y-98535714D01*
X152357142Y-98392857D01*
X152357142Y-97964285D01*
X152428571Y-97821428D01*
X152500000Y-97750000D01*
X152642857Y-97678571D01*
X152928571Y-97678571D01*
X153071428Y-97750000D01*
X154285714Y-98607142D02*
X154142857Y-98678571D01*
X153857142Y-98678571D01*
X153714285Y-98607142D01*
X153642857Y-98464285D01*
X153642857Y-97892857D01*
X153714285Y-97750000D01*
X153857142Y-97678571D01*
X154142857Y-97678571D01*
X154285714Y-97750000D01*
X154357142Y-97892857D01*
X154357142Y-98035714D01*
X153642857Y-98178571D01*
X156142857Y-98678571D02*
X156142857Y-97178571D01*
X156142857Y-97892857D02*
X156999999Y-97892857D01*
X156999999Y-98678571D02*
X156999999Y-97178571D01*
X157928571Y-98678571D02*
X157785714Y-98607142D01*
X157714285Y-98535714D01*
X157642857Y-98392857D01*
X157642857Y-97964285D01*
X157714285Y-97821428D01*
X157785714Y-97750000D01*
X157928571Y-97678571D01*
X158142857Y-97678571D01*
X158285714Y-97750000D01*
X158357142Y-97821428D01*
X158428571Y-97964285D01*
X158428571Y-98392857D01*
X158357142Y-98535714D01*
X158285714Y-98607142D01*
X158142857Y-98678571D01*
X157928571Y-98678571D01*
X159285714Y-98678571D02*
X159142857Y-98607142D01*
X159071428Y-98464285D01*
X159071428Y-97178571D01*
X160428571Y-98607142D02*
X160285714Y-98678571D01*
X160000000Y-98678571D01*
X159857142Y-98607142D01*
X159785714Y-98464285D01*
X159785714Y-97892857D01*
X159857142Y-97750000D01*
X160000000Y-97678571D01*
X160285714Y-97678571D01*
X160428571Y-97750000D01*
X160500000Y-97892857D01*
X160500000Y-98035714D01*
X159785714Y-98178571D01*
D11*
X135000000Y-98000000D02*
X138000000Y-98000000D01*
X120000000Y-106000000D02*
X135000000Y-98000000D01*
M02*
