%FSLAX45Y45*%
G04 Gerber Fmt 4.5, Leading zero omitted, Abs format (unit mm)*
G04 Created by KiCad (PCBNEW (5.0.1)-3) date 2/16/2019 9:55:55 PM*
%MOMM*%
%LPD*%
G01*
G04 APERTURE LIST*
%ADD10C,0.150000*%
%ADD11C,0.200000*%
%ADD12C,0.300000*%
G04 APERTURE END LIST*
D10*
X9000000Y-11000000D02*
X8900000Y-11000000D01*
X9600000Y-11000000D02*
X9000000Y-11000000D01*
X9600000Y-11000000D02*
X12400000Y-11000000D01*
X8900000Y-5500000D02*
X8900000Y-11000000D01*
X12400000Y-5500000D02*
X8900000Y-5500000D01*
X12400000Y-11000000D02*
X12400000Y-5500000D01*
D11*
X11840000Y-5740000D02*
X12160000Y-6060000D01*
X12160000Y-5740000D02*
X11840000Y-6060000D01*
X9140000Y-5740000D02*
X9460000Y-6060000D01*
X9460000Y-5740000D02*
X9140000Y-6060000D01*
X11840000Y-10440000D02*
X12160000Y-10760000D01*
X12160000Y-10440000D02*
X11840000Y-10760000D01*
X9140000Y-10440000D02*
X9460000Y-10760000D01*
X9460000Y-10440000D02*
X9140000Y-10760000D01*
D12*
X9178928Y-11473214D02*
X9178928Y-11173214D01*
X9250357Y-11173214D01*
X9293214Y-11187500D01*
X9321786Y-11216071D01*
X9336071Y-11244643D01*
X9350357Y-11301786D01*
X9350357Y-11344643D01*
X9336071Y-11401786D01*
X9321786Y-11430357D01*
X9293214Y-11458929D01*
X9250357Y-11473214D01*
X9178928Y-11473214D01*
X9478928Y-11473214D02*
X9478928Y-11273214D01*
X9478928Y-11330357D02*
X9493214Y-11301786D01*
X9507500Y-11287500D01*
X9536071Y-11273214D01*
X9564643Y-11273214D01*
X9664643Y-11473214D02*
X9664643Y-11273214D01*
X9664643Y-11173214D02*
X9650357Y-11187500D01*
X9664643Y-11201786D01*
X9678928Y-11187500D01*
X9664643Y-11173214D01*
X9664643Y-11201786D01*
X9850357Y-11473214D02*
X9821786Y-11458929D01*
X9807500Y-11430357D01*
X9807500Y-11173214D01*
X10007500Y-11473214D02*
X9978928Y-11458929D01*
X9964643Y-11430357D01*
X9964643Y-11173214D01*
X10350357Y-11473214D02*
X10350357Y-11173214D01*
X10450357Y-11387500D01*
X10550357Y-11173214D01*
X10550357Y-11473214D01*
X10821786Y-11473214D02*
X10821786Y-11316071D01*
X10807500Y-11287500D01*
X10778928Y-11273214D01*
X10721786Y-11273214D01*
X10693214Y-11287500D01*
X10821786Y-11458929D02*
X10793214Y-11473214D01*
X10721786Y-11473214D01*
X10693214Y-11458929D01*
X10678928Y-11430357D01*
X10678928Y-11401786D01*
X10693214Y-11373214D01*
X10721786Y-11358929D01*
X10793214Y-11358929D01*
X10821786Y-11344643D01*
X10964643Y-11273214D02*
X10964643Y-11573214D01*
X10964643Y-11287500D02*
X10993214Y-11273214D01*
X11050357Y-11273214D01*
X11078928Y-11287500D01*
X11093214Y-11301786D01*
X11107500Y-11330357D01*
X11107500Y-11416071D01*
X11093214Y-11444643D01*
X11078928Y-11458929D01*
X11050357Y-11473214D01*
X10993214Y-11473214D01*
X10964643Y-11458929D01*
X11236071Y-11444643D02*
X11250357Y-11458929D01*
X11236071Y-11473214D01*
X11221786Y-11458929D01*
X11236071Y-11444643D01*
X11236071Y-11473214D01*
X11236071Y-11287500D02*
X11250357Y-11301786D01*
X11236071Y-11316071D01*
X11221786Y-11301786D01*
X11236071Y-11287500D01*
X11236071Y-11316071D01*
X8572500Y-11807500D02*
X8892500Y-12127500D01*
X8892500Y-11807500D02*
X8572500Y-12127500D01*
X9150357Y-11803214D02*
X9336071Y-11803214D01*
X9236071Y-11917500D01*
X9278928Y-11917500D01*
X9307500Y-11931786D01*
X9321786Y-11946071D01*
X9336071Y-11974643D01*
X9336071Y-12046071D01*
X9321786Y-12074643D01*
X9307500Y-12088929D01*
X9278928Y-12103214D01*
X9193214Y-12103214D01*
X9164643Y-12088929D01*
X9150357Y-12074643D01*
X9464643Y-12074643D02*
X9478928Y-12088929D01*
X9464643Y-12103214D01*
X9450357Y-12088929D01*
X9464643Y-12074643D01*
X9464643Y-12103214D01*
X9593214Y-11831786D02*
X9607500Y-11817500D01*
X9636071Y-11803214D01*
X9707500Y-11803214D01*
X9736071Y-11817500D01*
X9750357Y-11831786D01*
X9764643Y-11860357D01*
X9764643Y-11888929D01*
X9750357Y-11931786D01*
X9578928Y-12103214D01*
X9764643Y-12103214D01*
X9950357Y-11803214D02*
X9978928Y-11803214D01*
X10007500Y-11817500D01*
X10021786Y-11831786D01*
X10036071Y-11860357D01*
X10050357Y-11917500D01*
X10050357Y-11988929D01*
X10036071Y-12046071D01*
X10021786Y-12074643D01*
X10007500Y-12088929D01*
X9978928Y-12103214D01*
X9950357Y-12103214D01*
X9921786Y-12088929D01*
X9907500Y-12074643D01*
X9893214Y-12046071D01*
X9878928Y-11988929D01*
X9878928Y-11917500D01*
X9893214Y-11860357D01*
X9907500Y-11831786D01*
X9921786Y-11817500D01*
X9950357Y-11803214D01*
X10178928Y-12103214D02*
X10178928Y-11903214D01*
X10178928Y-11931786D02*
X10193214Y-11917500D01*
X10221786Y-11903214D01*
X10264643Y-11903214D01*
X10293214Y-11917500D01*
X10307500Y-11946071D01*
X10307500Y-12103214D01*
X10307500Y-11946071D02*
X10321786Y-11917500D01*
X10350357Y-11903214D01*
X10393214Y-11903214D01*
X10421786Y-11917500D01*
X10436071Y-11946071D01*
X10436071Y-12103214D01*
X10578928Y-12103214D02*
X10578928Y-11903214D01*
X10578928Y-11931786D02*
X10593214Y-11917500D01*
X10621786Y-11903214D01*
X10664643Y-11903214D01*
X10693214Y-11917500D01*
X10707500Y-11946071D01*
X10707500Y-12103214D01*
X10707500Y-11946071D02*
X10721786Y-11917500D01*
X10750357Y-11903214D01*
X10793214Y-11903214D01*
X10821786Y-11917500D01*
X10836071Y-11946071D01*
X10836071Y-12103214D01*
X11421786Y-11788929D02*
X11164643Y-12174643D01*
X11807500Y-11803214D02*
X11836071Y-11803214D01*
X11864643Y-11817500D01*
X11878928Y-11831786D01*
X11893214Y-11860357D01*
X11907500Y-11917500D01*
X11907500Y-11988929D01*
X11893214Y-12046071D01*
X11878928Y-12074643D01*
X11864643Y-12088929D01*
X11836071Y-12103214D01*
X11807500Y-12103214D01*
X11778928Y-12088929D01*
X11764643Y-12074643D01*
X11750357Y-12046071D01*
X11736071Y-11988929D01*
X11736071Y-11917500D01*
X11750357Y-11860357D01*
X11764643Y-11831786D01*
X11778928Y-11817500D01*
X11807500Y-11803214D01*
X12036071Y-12074643D02*
X12050357Y-12088929D01*
X12036071Y-12103214D01*
X12021786Y-12088929D01*
X12036071Y-12074643D01*
X12036071Y-12103214D01*
X12336071Y-12103214D02*
X12164643Y-12103214D01*
X12250357Y-12103214D02*
X12250357Y-11803214D01*
X12221786Y-11846071D01*
X12193214Y-11874643D01*
X12164643Y-11888929D01*
X12450357Y-11831786D02*
X12464643Y-11817500D01*
X12493214Y-11803214D01*
X12564643Y-11803214D01*
X12593214Y-11817500D01*
X12607500Y-11831786D01*
X12621786Y-11860357D01*
X12621786Y-11888929D01*
X12607500Y-11931786D01*
X12436071Y-12103214D01*
X12621786Y-12103214D01*
X12878928Y-11803214D02*
X12821786Y-11803214D01*
X12793214Y-11817500D01*
X12778928Y-11831786D01*
X12750357Y-11874643D01*
X12736071Y-11931786D01*
X12736071Y-12046071D01*
X12750357Y-12074643D01*
X12764643Y-12088929D01*
X12793214Y-12103214D01*
X12850357Y-12103214D01*
X12878928Y-12088929D01*
X12893214Y-12074643D01*
X12907500Y-12046071D01*
X12907500Y-11974643D01*
X12893214Y-11946071D01*
X12878928Y-11931786D01*
X12850357Y-11917500D01*
X12793214Y-11917500D01*
X12764643Y-11931786D01*
X12750357Y-11946071D01*
X12736071Y-11974643D01*
X13021786Y-11803214D02*
X13021786Y-11860357D01*
X13136071Y-11803214D02*
X13136071Y-11860357D01*
X13578928Y-12217500D02*
X13564643Y-12203214D01*
X13536071Y-12160357D01*
X13521786Y-12131786D01*
X13507500Y-12088929D01*
X13493214Y-12017500D01*
X13493214Y-11960357D01*
X13507500Y-11888929D01*
X13521786Y-11846071D01*
X13536071Y-11817500D01*
X13564643Y-11774643D01*
X13578928Y-11760357D01*
X13821786Y-11903214D02*
X13821786Y-12103214D01*
X13750357Y-11788929D02*
X13678928Y-12003214D01*
X13864643Y-12003214D01*
X14207500Y-12103214D02*
X14207500Y-11803214D01*
X14336071Y-12103214D02*
X14336071Y-11946071D01*
X14321786Y-11917500D01*
X14293214Y-11903214D01*
X14250357Y-11903214D01*
X14221786Y-11917500D01*
X14207500Y-11931786D01*
X14521786Y-12103214D02*
X14493214Y-12088929D01*
X14478928Y-12074643D01*
X14464643Y-12046071D01*
X14464643Y-11960357D01*
X14478928Y-11931786D01*
X14493214Y-11917500D01*
X14521786Y-11903214D01*
X14564643Y-11903214D01*
X14593214Y-11917500D01*
X14607500Y-11931786D01*
X14621786Y-11960357D01*
X14621786Y-12046071D01*
X14607500Y-12074643D01*
X14593214Y-12088929D01*
X14564643Y-12103214D01*
X14521786Y-12103214D01*
X14793214Y-12103214D02*
X14764643Y-12088929D01*
X14750357Y-12060357D01*
X14750357Y-11803214D01*
X15021786Y-12088929D02*
X14993214Y-12103214D01*
X14936071Y-12103214D01*
X14907500Y-12088929D01*
X14893214Y-12060357D01*
X14893214Y-11946071D01*
X14907500Y-11917500D01*
X14936071Y-11903214D01*
X14993214Y-11903214D01*
X15021786Y-11917500D01*
X15036071Y-11946071D01*
X15036071Y-11974643D01*
X14893214Y-12003214D01*
X15150357Y-12088929D02*
X15178928Y-12103214D01*
X15236071Y-12103214D01*
X15264643Y-12088929D01*
X15278928Y-12060357D01*
X15278928Y-12046071D01*
X15264643Y-12017500D01*
X15236071Y-12003214D01*
X15193214Y-12003214D01*
X15164643Y-11988929D01*
X15150357Y-11960357D01*
X15150357Y-11946071D01*
X15164643Y-11917500D01*
X15193214Y-11903214D01*
X15236071Y-11903214D01*
X15264643Y-11917500D01*
X15378928Y-12217500D02*
X15393214Y-12203214D01*
X15421786Y-12160357D01*
X15436071Y-12131786D01*
X15450357Y-12088929D01*
X15464643Y-12017500D01*
X15464643Y-11960357D01*
X15450357Y-11888929D01*
X15436071Y-11846071D01*
X15421786Y-11817500D01*
X15393214Y-11774643D01*
X15378928Y-11760357D01*
X15921786Y-12217500D02*
X15907500Y-12203214D01*
X15878928Y-12160357D01*
X15864643Y-12131786D01*
X15850357Y-12088929D01*
X15836071Y-12017500D01*
X15836071Y-11960357D01*
X15850357Y-11888929D01*
X15864643Y-11846071D01*
X15878928Y-11817500D01*
X15907500Y-11774643D01*
X15921786Y-11760357D01*
X16036071Y-11903214D02*
X16036071Y-12103214D01*
X16036071Y-11931786D02*
X16050357Y-11917500D01*
X16078928Y-11903214D01*
X16121786Y-11903214D01*
X16150357Y-11917500D01*
X16164643Y-11946071D01*
X16164643Y-12103214D01*
X16350357Y-12103214D02*
X16321786Y-12088929D01*
X16307500Y-12074643D01*
X16293214Y-12046071D01*
X16293214Y-11960357D01*
X16307500Y-11931786D01*
X16321786Y-11917500D01*
X16350357Y-11903214D01*
X16393214Y-11903214D01*
X16421786Y-11917500D01*
X16436071Y-11931786D01*
X16450357Y-11960357D01*
X16450357Y-12046071D01*
X16436071Y-12074643D01*
X16421786Y-12088929D01*
X16393214Y-12103214D01*
X16350357Y-12103214D01*
X16536071Y-11903214D02*
X16650357Y-11903214D01*
X16578928Y-11803214D02*
X16578928Y-12060357D01*
X16593214Y-12088929D01*
X16621786Y-12103214D01*
X16650357Y-12103214D01*
X16978928Y-11903214D02*
X16978928Y-12203214D01*
X16978928Y-11917500D02*
X17007500Y-11903214D01*
X17064643Y-11903214D01*
X17093214Y-11917500D01*
X17107500Y-11931786D01*
X17121786Y-11960357D01*
X17121786Y-12046071D01*
X17107500Y-12074643D01*
X17093214Y-12088929D01*
X17064643Y-12103214D01*
X17007500Y-12103214D01*
X16978928Y-12088929D01*
X17293214Y-12103214D02*
X17264643Y-12088929D01*
X17250357Y-12060357D01*
X17250357Y-11803214D01*
X17536071Y-12103214D02*
X17536071Y-11946071D01*
X17521786Y-11917500D01*
X17493214Y-11903214D01*
X17436071Y-11903214D01*
X17407500Y-11917500D01*
X17536071Y-12088929D02*
X17507500Y-12103214D01*
X17436071Y-12103214D01*
X17407500Y-12088929D01*
X17393214Y-12060357D01*
X17393214Y-12031786D01*
X17407500Y-12003214D01*
X17436071Y-11988929D01*
X17507500Y-11988929D01*
X17536071Y-11974643D01*
X17636071Y-11903214D02*
X17750357Y-11903214D01*
X17678928Y-11803214D02*
X17678928Y-12060357D01*
X17693214Y-12088929D01*
X17721786Y-12103214D01*
X17750357Y-12103214D01*
X17964643Y-12088929D02*
X17936071Y-12103214D01*
X17878928Y-12103214D01*
X17850357Y-12088929D01*
X17836071Y-12060357D01*
X17836071Y-11946071D01*
X17850357Y-11917500D01*
X17878928Y-11903214D01*
X17936071Y-11903214D01*
X17964643Y-11917500D01*
X17978928Y-11946071D01*
X17978928Y-11974643D01*
X17836071Y-12003214D01*
X18236071Y-12103214D02*
X18236071Y-11803214D01*
X18236071Y-12088929D02*
X18207500Y-12103214D01*
X18150357Y-12103214D01*
X18121786Y-12088929D01*
X18107500Y-12074643D01*
X18093214Y-12046071D01*
X18093214Y-11960357D01*
X18107500Y-11931786D01*
X18121786Y-11917500D01*
X18150357Y-11903214D01*
X18207500Y-11903214D01*
X18236071Y-11917500D01*
X18350357Y-12217500D02*
X18364643Y-12203214D01*
X18393214Y-12160357D01*
X18407500Y-12131786D01*
X18421786Y-12088929D01*
X18436071Y-12017500D01*
X18436071Y-11960357D01*
X18421786Y-11888929D01*
X18407500Y-11846071D01*
X18393214Y-11817500D01*
X18364643Y-11774643D01*
X18350357Y-11760357D01*
M02*
