G04 #@! TF.GenerationSoftware,KiCad,Pcbnew,(5.0.1)-3*
G04 #@! TF.CreationDate,2019-02-16T21:55:45-05:00*
G04 #@! TF.ProjectId,Zprobe Adaptor,5A70726F62652041646170746F722E6B,rev?*
G04 #@! TF.SameCoordinates,Original*
G04 #@! TF.FileFunction,Copper,L2,Bot,Signal*
G04 #@! TF.FilePolarity,Positive*
%FSLAX46Y46*%
G04 Gerber Fmt 4.6, Leading zero omitted, Abs format (unit mm)*
G04 Created by KiCad (PCBNEW (5.0.1)-3) date 2/16/2019 9:55:45 PM*
%MOMM*%
%LPD*%
G01*
G04 APERTURE LIST*
G04 #@! TA.AperFunction,ComponentPad*
%ADD10C,2.400000*%
G04 #@! TD*
G04 #@! TA.AperFunction,ComponentPad*
%ADD11O,2.400000X2.400000*%
G04 #@! TD*
G04 #@! TA.AperFunction,ComponentPad*
%ADD12C,2.500000*%
G04 #@! TD*
G04 #@! TA.AperFunction,ComponentPad*
%ADD13R,1.600000X2.400000*%
G04 #@! TD*
G04 #@! TA.AperFunction,ComponentPad*
%ADD14O,1.600000X2.400000*%
G04 #@! TD*
G04 #@! TA.AperFunction,ComponentPad*
%ADD15R,1.800000X1.800000*%
G04 #@! TD*
G04 #@! TA.AperFunction,ComponentPad*
%ADD16C,1.800000*%
G04 #@! TD*
G04 #@! TA.AperFunction,Conductor*
%ADD17C,1.000000*%
G04 #@! TD*
G04 #@! TA.AperFunction,Conductor*
%ADD18C,0.300000*%
G04 #@! TD*
G04 APERTURE END LIST*
D10*
G04 #@! TO.P,R1,1*
G04 #@! TO.N,Net-(D1-Pad1)*
X118500000Y-96100000D03*
D11*
G04 #@! TO.P,R1,2*
G04 #@! TO.N,Net-(J3-Pad2)*
X105800000Y-96100000D03*
G04 #@! TD*
D10*
G04 #@! TO.P,R2,1*
G04 #@! TO.N,Net-(R2-Pad1)*
X118500000Y-100300000D03*
D11*
G04 #@! TO.P,R2,2*
G04 #@! TO.N,Net-(J3-Pad2)*
X105800000Y-100300000D03*
G04 #@! TD*
D12*
G04 #@! TO.P,J1,1*
G04 #@! TO.N,Net-(J1-Pad1)*
X100000000Y-66000000D03*
G04 #@! TO.P,J1,2*
G04 #@! TO.N,Net-(J1-Pad2)*
X100000000Y-71000000D03*
G04 #@! TD*
G04 #@! TO.P,J2,2*
G04 #@! TO.N,Earth*
X100000000Y-82500000D03*
G04 #@! TO.P,J2,1*
G04 #@! TO.N,VCC*
X100000000Y-77500000D03*
G04 #@! TD*
G04 #@! TO.P,J3,3*
G04 #@! TO.N,Earth*
X100000000Y-99000000D03*
G04 #@! TO.P,J3,2*
G04 #@! TO.N,Net-(J3-Pad2)*
X100000000Y-94000000D03*
G04 #@! TO.P,J3,1*
G04 #@! TO.N,VCC*
X100000000Y-89000000D03*
G04 #@! TD*
D13*
G04 #@! TO.P,U1,1*
G04 #@! TO.N,VCC*
X115000000Y-88000000D03*
D14*
G04 #@! TO.P,U1,3*
G04 #@! TO.N,Net-(J1-Pad1)*
X117540000Y-77840000D03*
G04 #@! TO.P,U1,2*
G04 #@! TO.N,Net-(R2-Pad1)*
X117540000Y-88000000D03*
G04 #@! TO.P,U1,4*
G04 #@! TO.N,Net-(J1-Pad2)*
X115000000Y-77840000D03*
G04 #@! TD*
D15*
G04 #@! TO.P,D1,1*
G04 #@! TO.N,Net-(D1-Pad1)*
X110000000Y-92000000D03*
D16*
G04 #@! TO.P,D1,2*
G04 #@! TO.N,VCC*
X110000000Y-89460000D03*
G04 #@! TD*
D17*
G04 #@! TO.N,VCC*
X113540000Y-89460000D02*
X115000000Y-88000000D01*
X110000000Y-89460000D02*
X113540000Y-89460000D01*
X106460000Y-82192234D02*
X106460000Y-89460000D01*
X101767766Y-77500000D02*
X106460000Y-82192234D01*
X100000000Y-77500000D02*
X101767766Y-77500000D01*
X100000000Y-89000000D02*
X104000000Y-89000000D01*
X104460000Y-89460000D02*
X107000000Y-89460000D01*
X104000000Y-89000000D02*
X104460000Y-89460000D01*
X110000000Y-89460000D02*
X107000000Y-89460000D01*
X107000000Y-89460000D02*
X106460000Y-89460000D01*
G04 #@! TO.N,Net-(D1-Pad1)*
X112200000Y-96100000D02*
X118500000Y-96100000D01*
X110000000Y-92000000D02*
X110000000Y-93900000D01*
X110000000Y-93900000D02*
X112200000Y-96100000D01*
G04 #@! TO.N,Net-(J1-Pad1)*
X100000000Y-66000000D02*
X114000000Y-66000000D01*
X117540000Y-69540000D02*
X117540000Y-77840000D01*
X114000000Y-66000000D02*
X117540000Y-69540000D01*
G04 #@! TO.N,Net-(J1-Pad2)*
X100000000Y-71000000D02*
X114000000Y-71000000D01*
X114000000Y-71000000D02*
X115000000Y-72000000D01*
X115000000Y-72000000D02*
X115000000Y-77840000D01*
G04 #@! TO.N,Net-(J3-Pad2)*
X103700000Y-94000000D02*
X105800000Y-96100000D01*
X100000000Y-94000000D02*
X103700000Y-94000000D01*
X105800000Y-96100000D02*
X105800000Y-100300000D01*
G04 #@! TO.N,Net-(R2-Pad1)*
X117540000Y-90440000D02*
X117540000Y-88000000D01*
X121500000Y-94400000D02*
X117540000Y-90440000D01*
X121500000Y-99400000D02*
X121500000Y-94400000D01*
X118500000Y-100300000D02*
X120600000Y-100300000D01*
X120600000Y-100300000D02*
X121500000Y-99400000D01*
G04 #@! TD*
D18*
G04 #@! TO.N,Earth*
G36*
X116793934Y-56393934D02*
X116772800Y-56420500D01*
X116272800Y-57220500D01*
X116260728Y-57244291D01*
X116060728Y-57744291D01*
X116054479Y-57763620D01*
X115854479Y-58563620D01*
X115850000Y-58600000D01*
X115850000Y-58906668D01*
X115848566Y-58907909D01*
X115822337Y-58960230D01*
X115818127Y-59018605D01*
X115918127Y-59818605D01*
X115921448Y-59836380D01*
X116021448Y-60236380D01*
X116027697Y-60255709D01*
X116227697Y-60755709D01*
X116232805Y-60767082D01*
X116432805Y-61167082D01*
X116446969Y-61190000D01*
X116746969Y-61590000D01*
X116760903Y-61606066D01*
X117360903Y-62206066D01*
X117376969Y-62220000D01*
X117776969Y-62520000D01*
X117799887Y-62534164D01*
X118399887Y-62834164D01*
X118425761Y-62844229D01*
X119125761Y-63044229D01*
X119152043Y-63049256D01*
X120152043Y-63149256D01*
X120196386Y-63147087D01*
X121196386Y-62947087D01*
X121227890Y-62937072D01*
X122127890Y-62537072D01*
X122156969Y-62520000D01*
X122556969Y-62220000D01*
X122573035Y-62206066D01*
X123173035Y-61606066D01*
X123175001Y-61603595D01*
X123175000Y-103362868D01*
X122606066Y-102793934D01*
X122590000Y-102780000D01*
X122190000Y-102480000D01*
X122167082Y-102465836D01*
X121567082Y-102165836D01*
X121541208Y-102155771D01*
X120841208Y-101955771D01*
X120814926Y-101950744D01*
X119814926Y-101850744D01*
X119770583Y-101852913D01*
X119688358Y-101869358D01*
X120007716Y-101550000D01*
X120476896Y-101550000D01*
X120600000Y-101574487D01*
X120723104Y-101550000D01*
X120723109Y-101550000D01*
X121087725Y-101477473D01*
X121501199Y-101201199D01*
X121570936Y-101096830D01*
X122296833Y-100370934D01*
X122401199Y-100301199D01*
X122677473Y-99887725D01*
X122750000Y-99523109D01*
X122750000Y-99523105D01*
X122774487Y-99400001D01*
X122750000Y-99276897D01*
X122750000Y-94523109D01*
X122774488Y-94400000D01*
X122677473Y-93912274D01*
X122470934Y-93603167D01*
X122401199Y-93498801D01*
X122296833Y-93429066D01*
X118790000Y-89922234D01*
X118790000Y-89319169D01*
X119000068Y-89004780D01*
X119090000Y-88552659D01*
X119090000Y-87447340D01*
X119000068Y-86995220D01*
X118657488Y-86482512D01*
X118144779Y-86139932D01*
X117540000Y-86019634D01*
X116935220Y-86139932D01*
X116469085Y-86451393D01*
X116340720Y-86259280D01*
X116092635Y-86093516D01*
X115800000Y-86035307D01*
X114200000Y-86035307D01*
X113907365Y-86093516D01*
X113659280Y-86259280D01*
X113493516Y-86507365D01*
X113435307Y-86800000D01*
X113435307Y-87796926D01*
X113022234Y-88210000D01*
X111083452Y-88210000D01*
X110934650Y-88061198D01*
X110328205Y-87810000D01*
X109671795Y-87810000D01*
X109065350Y-88061198D01*
X108916548Y-88210000D01*
X107710000Y-88210000D01*
X107710000Y-82315338D01*
X107734487Y-82192234D01*
X107710000Y-82069130D01*
X107710000Y-82069125D01*
X107637473Y-81704509D01*
X107361199Y-81291035D01*
X107256833Y-81221300D01*
X102738702Y-76703170D01*
X102668965Y-76598801D01*
X102255491Y-76322527D01*
X101890875Y-76250000D01*
X101890870Y-76250000D01*
X101767766Y-76225513D01*
X101644662Y-76250000D01*
X101578427Y-76250000D01*
X101132909Y-75804482D01*
X100397825Y-75500000D01*
X99602175Y-75500000D01*
X98867091Y-75804482D01*
X98304482Y-76367091D01*
X98000000Y-77102175D01*
X98000000Y-77897825D01*
X98304482Y-78632909D01*
X98867091Y-79195518D01*
X99602175Y-79500000D01*
X100397825Y-79500000D01*
X101132909Y-79195518D01*
X101414213Y-78914214D01*
X105210000Y-82710001D01*
X105210001Y-88210000D01*
X104977766Y-88210000D01*
X104970936Y-88203170D01*
X104901199Y-88098801D01*
X104487725Y-87822527D01*
X104123109Y-87750000D01*
X104123104Y-87750000D01*
X104000000Y-87725513D01*
X103876896Y-87750000D01*
X101578427Y-87750000D01*
X101132909Y-87304482D01*
X100397825Y-87000000D01*
X99602175Y-87000000D01*
X98867091Y-87304482D01*
X98304482Y-87867091D01*
X98000000Y-88602175D01*
X98000000Y-89397825D01*
X98304482Y-90132909D01*
X98867091Y-90695518D01*
X99602175Y-91000000D01*
X100397825Y-91000000D01*
X101132909Y-90695518D01*
X101578427Y-90250000D01*
X103482234Y-90250000D01*
X103489064Y-90256830D01*
X103558801Y-90361199D01*
X103972275Y-90637473D01*
X104336891Y-90710000D01*
X104336895Y-90710000D01*
X104459999Y-90734487D01*
X104583103Y-90710000D01*
X106336891Y-90710000D01*
X106460000Y-90734488D01*
X106583109Y-90710000D01*
X108458573Y-90710000D01*
X108393516Y-90807365D01*
X108335307Y-91100000D01*
X108335307Y-92900000D01*
X108393516Y-93192635D01*
X108559280Y-93440720D01*
X108750001Y-93568155D01*
X108750001Y-93776892D01*
X108725513Y-93900000D01*
X108750001Y-94023109D01*
X108822528Y-94387725D01*
X109098802Y-94801199D01*
X109203168Y-94870934D01*
X111229066Y-96896833D01*
X111298801Y-97001199D01*
X111712275Y-97277473D01*
X112076891Y-97350000D01*
X112076896Y-97350000D01*
X112200000Y-97374487D01*
X112323104Y-97350000D01*
X116992284Y-97350000D01*
X117395414Y-97753130D01*
X118112121Y-98050000D01*
X118887879Y-98050000D01*
X119604586Y-97753130D01*
X120153130Y-97204586D01*
X120250000Y-96970720D01*
X120250000Y-98882233D01*
X120082234Y-99050000D01*
X120007716Y-99050000D01*
X119604586Y-98646870D01*
X118887879Y-98350000D01*
X118112121Y-98350000D01*
X117395414Y-98646870D01*
X116846870Y-99195414D01*
X116550000Y-99912121D01*
X116550000Y-100687879D01*
X116846870Y-101404586D01*
X117395414Y-101953130D01*
X118112121Y-102250000D01*
X118318167Y-102250000D01*
X117839079Y-102462928D01*
X117810000Y-102480000D01*
X117410000Y-102780000D01*
X117393934Y-102793934D01*
X116793934Y-103393934D01*
X116772800Y-103420500D01*
X116272800Y-104220500D01*
X116260728Y-104244291D01*
X116060728Y-104744291D01*
X116054479Y-104763620D01*
X115854479Y-105563620D01*
X115850000Y-105600000D01*
X115850000Y-105906668D01*
X115848566Y-105907909D01*
X115822337Y-105960230D01*
X115818127Y-106018605D01*
X115918127Y-106818605D01*
X115921448Y-106836380D01*
X116021448Y-107236380D01*
X116027697Y-107255709D01*
X116227697Y-107755709D01*
X116232805Y-107767082D01*
X116432805Y-108167082D01*
X116446969Y-108190000D01*
X116746969Y-108590000D01*
X116760903Y-108606066D01*
X117329837Y-109175000D01*
X95704101Y-109175000D01*
X96173035Y-108706066D01*
X96194169Y-108679500D01*
X96694169Y-107879500D01*
X96706241Y-107855709D01*
X96906241Y-107355709D01*
X96912490Y-107336380D01*
X97112490Y-106536380D01*
X97116969Y-106500000D01*
X97116969Y-106193332D01*
X97118403Y-106192091D01*
X97144632Y-106139770D01*
X97148842Y-106081395D01*
X97048842Y-105281395D01*
X97045521Y-105263620D01*
X96945521Y-104863620D01*
X96939272Y-104844291D01*
X96739272Y-104344291D01*
X96734164Y-104332918D01*
X96534164Y-103932918D01*
X96520000Y-103910000D01*
X96220000Y-103510000D01*
X96206066Y-103493934D01*
X95606066Y-102893934D01*
X95590000Y-102880000D01*
X95190000Y-102580000D01*
X95167082Y-102565836D01*
X94567082Y-102265836D01*
X94541208Y-102255771D01*
X93841208Y-102055771D01*
X93814926Y-102050744D01*
X92814926Y-101950744D01*
X92770583Y-101952913D01*
X91770583Y-102152913D01*
X91739079Y-102162928D01*
X90839079Y-102562928D01*
X90810000Y-102580000D01*
X90410000Y-102880000D01*
X90393934Y-102893934D01*
X89825000Y-103462868D01*
X89825000Y-100392727D01*
X98890115Y-100392727D01*
X99024397Y-100683063D01*
X99742741Y-100928295D01*
X100500250Y-100879961D01*
X100975603Y-100683063D01*
X101109885Y-100392727D01*
X100000000Y-99282843D01*
X98890115Y-100392727D01*
X89825000Y-100392727D01*
X89825000Y-98742741D01*
X98071705Y-98742741D01*
X98120039Y-99500250D01*
X98316937Y-99975603D01*
X98607273Y-100109885D01*
X99717157Y-99000000D01*
X100282843Y-99000000D01*
X101392727Y-100109885D01*
X101683063Y-99975603D01*
X101928295Y-99257259D01*
X101879961Y-98499750D01*
X101683063Y-98024397D01*
X101392727Y-97890115D01*
X100282843Y-99000000D01*
X99717157Y-99000000D01*
X98607273Y-97890115D01*
X98316937Y-98024397D01*
X98071705Y-98742741D01*
X89825000Y-98742741D01*
X89825000Y-97607273D01*
X98890115Y-97607273D01*
X100000000Y-98717157D01*
X101109885Y-97607273D01*
X100975603Y-97316937D01*
X100257259Y-97071705D01*
X99499750Y-97120039D01*
X99024397Y-97316937D01*
X98890115Y-97607273D01*
X89825000Y-97607273D01*
X89825000Y-93602175D01*
X98000000Y-93602175D01*
X98000000Y-94397825D01*
X98304482Y-95132909D01*
X98867091Y-95695518D01*
X99602175Y-96000000D01*
X100397825Y-96000000D01*
X101132909Y-95695518D01*
X101578427Y-95250000D01*
X103182234Y-95250000D01*
X103848371Y-95916137D01*
X103811798Y-96100000D01*
X103963141Y-96860852D01*
X104394129Y-97505871D01*
X104550000Y-97610021D01*
X104550001Y-98789979D01*
X104394129Y-98894129D01*
X103963141Y-99539148D01*
X103811798Y-100300000D01*
X103963141Y-101060852D01*
X104394129Y-101705871D01*
X105039148Y-102136859D01*
X105607946Y-102250000D01*
X105992054Y-102250000D01*
X106560852Y-102136859D01*
X107205871Y-101705871D01*
X107636859Y-101060852D01*
X107788202Y-100300000D01*
X107636859Y-99539148D01*
X107205871Y-98894129D01*
X107050000Y-98789979D01*
X107050000Y-97610021D01*
X107205871Y-97505871D01*
X107636859Y-96860852D01*
X107788202Y-96100000D01*
X107636859Y-95339148D01*
X107205871Y-94694129D01*
X106560852Y-94263141D01*
X105992054Y-94150000D01*
X105617766Y-94150000D01*
X104670936Y-93203170D01*
X104601199Y-93098801D01*
X104187725Y-92822527D01*
X103823109Y-92750000D01*
X103823104Y-92750000D01*
X103700000Y-92725513D01*
X103576896Y-92750000D01*
X101578427Y-92750000D01*
X101132909Y-92304482D01*
X100397825Y-92000000D01*
X99602175Y-92000000D01*
X98867091Y-92304482D01*
X98304482Y-92867091D01*
X98000000Y-93602175D01*
X89825000Y-93602175D01*
X89825000Y-83892727D01*
X98890115Y-83892727D01*
X99024397Y-84183063D01*
X99742741Y-84428295D01*
X100500250Y-84379961D01*
X100975603Y-84183063D01*
X101109885Y-83892727D01*
X100000000Y-82782843D01*
X98890115Y-83892727D01*
X89825000Y-83892727D01*
X89825000Y-82242741D01*
X98071705Y-82242741D01*
X98120039Y-83000250D01*
X98316937Y-83475603D01*
X98607273Y-83609885D01*
X99717157Y-82500000D01*
X100282843Y-82500000D01*
X101392727Y-83609885D01*
X101683063Y-83475603D01*
X101928295Y-82757259D01*
X101879961Y-81999750D01*
X101683063Y-81524397D01*
X101392727Y-81390115D01*
X100282843Y-82500000D01*
X99717157Y-82500000D01*
X98607273Y-81390115D01*
X98316937Y-81524397D01*
X98071705Y-82242741D01*
X89825000Y-82242741D01*
X89825000Y-81107273D01*
X98890115Y-81107273D01*
X100000000Y-82217157D01*
X101109885Y-81107273D01*
X100975603Y-80816937D01*
X100257259Y-80571705D01*
X99499750Y-80620039D01*
X99024397Y-80816937D01*
X98890115Y-81107273D01*
X89825000Y-81107273D01*
X89825000Y-65602175D01*
X98000000Y-65602175D01*
X98000000Y-66397825D01*
X98304482Y-67132909D01*
X98867091Y-67695518D01*
X99602175Y-68000000D01*
X100397825Y-68000000D01*
X101132909Y-67695518D01*
X101578427Y-67250000D01*
X113482234Y-67250000D01*
X116290000Y-70057767D01*
X116290001Y-76520830D01*
X116270000Y-76550763D01*
X116250000Y-76520831D01*
X116250000Y-72123109D01*
X116274488Y-72000000D01*
X116177473Y-71512274D01*
X116074742Y-71358526D01*
X115901199Y-71098801D01*
X115796830Y-71029064D01*
X114970936Y-70203170D01*
X114901199Y-70098801D01*
X114487725Y-69822527D01*
X114123109Y-69750000D01*
X114123104Y-69750000D01*
X114000000Y-69725513D01*
X113876896Y-69750000D01*
X101578427Y-69750000D01*
X101132909Y-69304482D01*
X100397825Y-69000000D01*
X99602175Y-69000000D01*
X98867091Y-69304482D01*
X98304482Y-69867091D01*
X98000000Y-70602175D01*
X98000000Y-71397825D01*
X98304482Y-72132909D01*
X98867091Y-72695518D01*
X99602175Y-73000000D01*
X100397825Y-73000000D01*
X101132909Y-72695518D01*
X101578427Y-72250000D01*
X113482234Y-72250000D01*
X113750000Y-72517766D01*
X113750001Y-76520830D01*
X113539932Y-76835221D01*
X113450000Y-77287341D01*
X113450000Y-78392660D01*
X113539932Y-78844780D01*
X113882513Y-79357488D01*
X114395221Y-79700068D01*
X115000000Y-79820366D01*
X115604780Y-79700068D01*
X116117488Y-79357488D01*
X116270000Y-79129237D01*
X116422513Y-79357488D01*
X116935221Y-79700068D01*
X117540000Y-79820366D01*
X118144780Y-79700068D01*
X118657488Y-79357488D01*
X119000068Y-78844780D01*
X119090000Y-78392659D01*
X119090000Y-77287340D01*
X119000068Y-76835220D01*
X118790000Y-76520831D01*
X118790000Y-69663103D01*
X118814487Y-69539999D01*
X118790000Y-69416895D01*
X118790000Y-69416891D01*
X118717473Y-69052275D01*
X118441199Y-68638801D01*
X118336833Y-68569066D01*
X114970936Y-65203170D01*
X114901199Y-65098801D01*
X114487725Y-64822527D01*
X114123109Y-64750000D01*
X114123104Y-64750000D01*
X114000000Y-64725513D01*
X113876896Y-64750000D01*
X101578427Y-64750000D01*
X101132909Y-64304482D01*
X100397825Y-64000000D01*
X99602175Y-64000000D01*
X98867091Y-64304482D01*
X98304482Y-64867091D01*
X98000000Y-65602175D01*
X89825000Y-65602175D01*
X89825000Y-61670163D01*
X90360903Y-62206066D01*
X90376969Y-62220000D01*
X90776969Y-62520000D01*
X90799887Y-62534164D01*
X91399887Y-62834164D01*
X91425761Y-62844229D01*
X92125761Y-63044229D01*
X92152043Y-63049256D01*
X93152043Y-63149256D01*
X93196386Y-63147087D01*
X94196386Y-62947087D01*
X94227890Y-62937072D01*
X95127890Y-62537072D01*
X95156969Y-62520000D01*
X95556969Y-62220000D01*
X95573035Y-62206066D01*
X96173035Y-61606066D01*
X96194169Y-61579500D01*
X96694169Y-60779500D01*
X96706241Y-60755709D01*
X96906241Y-60255709D01*
X96912490Y-60236380D01*
X97112490Y-59436380D01*
X97116969Y-59400000D01*
X97116969Y-59093332D01*
X97118403Y-59092091D01*
X97144632Y-59039770D01*
X97148842Y-58981395D01*
X97048842Y-58181395D01*
X97045521Y-58163620D01*
X96945521Y-57763620D01*
X96939272Y-57744291D01*
X96739272Y-57244291D01*
X96734164Y-57232918D01*
X96534164Y-56832918D01*
X96520000Y-56810000D01*
X96220000Y-56410000D01*
X96206066Y-56393934D01*
X95637132Y-55825000D01*
X117362868Y-55825000D01*
X116793934Y-56393934D01*
X116793934Y-56393934D01*
G37*
X116793934Y-56393934D02*
X116772800Y-56420500D01*
X116272800Y-57220500D01*
X116260728Y-57244291D01*
X116060728Y-57744291D01*
X116054479Y-57763620D01*
X115854479Y-58563620D01*
X115850000Y-58600000D01*
X115850000Y-58906668D01*
X115848566Y-58907909D01*
X115822337Y-58960230D01*
X115818127Y-59018605D01*
X115918127Y-59818605D01*
X115921448Y-59836380D01*
X116021448Y-60236380D01*
X116027697Y-60255709D01*
X116227697Y-60755709D01*
X116232805Y-60767082D01*
X116432805Y-61167082D01*
X116446969Y-61190000D01*
X116746969Y-61590000D01*
X116760903Y-61606066D01*
X117360903Y-62206066D01*
X117376969Y-62220000D01*
X117776969Y-62520000D01*
X117799887Y-62534164D01*
X118399887Y-62834164D01*
X118425761Y-62844229D01*
X119125761Y-63044229D01*
X119152043Y-63049256D01*
X120152043Y-63149256D01*
X120196386Y-63147087D01*
X121196386Y-62947087D01*
X121227890Y-62937072D01*
X122127890Y-62537072D01*
X122156969Y-62520000D01*
X122556969Y-62220000D01*
X122573035Y-62206066D01*
X123173035Y-61606066D01*
X123175001Y-61603595D01*
X123175000Y-103362868D01*
X122606066Y-102793934D01*
X122590000Y-102780000D01*
X122190000Y-102480000D01*
X122167082Y-102465836D01*
X121567082Y-102165836D01*
X121541208Y-102155771D01*
X120841208Y-101955771D01*
X120814926Y-101950744D01*
X119814926Y-101850744D01*
X119770583Y-101852913D01*
X119688358Y-101869358D01*
X120007716Y-101550000D01*
X120476896Y-101550000D01*
X120600000Y-101574487D01*
X120723104Y-101550000D01*
X120723109Y-101550000D01*
X121087725Y-101477473D01*
X121501199Y-101201199D01*
X121570936Y-101096830D01*
X122296833Y-100370934D01*
X122401199Y-100301199D01*
X122677473Y-99887725D01*
X122750000Y-99523109D01*
X122750000Y-99523105D01*
X122774487Y-99400001D01*
X122750000Y-99276897D01*
X122750000Y-94523109D01*
X122774488Y-94400000D01*
X122677473Y-93912274D01*
X122470934Y-93603167D01*
X122401199Y-93498801D01*
X122296833Y-93429066D01*
X118790000Y-89922234D01*
X118790000Y-89319169D01*
X119000068Y-89004780D01*
X119090000Y-88552659D01*
X119090000Y-87447340D01*
X119000068Y-86995220D01*
X118657488Y-86482512D01*
X118144779Y-86139932D01*
X117540000Y-86019634D01*
X116935220Y-86139932D01*
X116469085Y-86451393D01*
X116340720Y-86259280D01*
X116092635Y-86093516D01*
X115800000Y-86035307D01*
X114200000Y-86035307D01*
X113907365Y-86093516D01*
X113659280Y-86259280D01*
X113493516Y-86507365D01*
X113435307Y-86800000D01*
X113435307Y-87796926D01*
X113022234Y-88210000D01*
X111083452Y-88210000D01*
X110934650Y-88061198D01*
X110328205Y-87810000D01*
X109671795Y-87810000D01*
X109065350Y-88061198D01*
X108916548Y-88210000D01*
X107710000Y-88210000D01*
X107710000Y-82315338D01*
X107734487Y-82192234D01*
X107710000Y-82069130D01*
X107710000Y-82069125D01*
X107637473Y-81704509D01*
X107361199Y-81291035D01*
X107256833Y-81221300D01*
X102738702Y-76703170D01*
X102668965Y-76598801D01*
X102255491Y-76322527D01*
X101890875Y-76250000D01*
X101890870Y-76250000D01*
X101767766Y-76225513D01*
X101644662Y-76250000D01*
X101578427Y-76250000D01*
X101132909Y-75804482D01*
X100397825Y-75500000D01*
X99602175Y-75500000D01*
X98867091Y-75804482D01*
X98304482Y-76367091D01*
X98000000Y-77102175D01*
X98000000Y-77897825D01*
X98304482Y-78632909D01*
X98867091Y-79195518D01*
X99602175Y-79500000D01*
X100397825Y-79500000D01*
X101132909Y-79195518D01*
X101414213Y-78914214D01*
X105210000Y-82710001D01*
X105210001Y-88210000D01*
X104977766Y-88210000D01*
X104970936Y-88203170D01*
X104901199Y-88098801D01*
X104487725Y-87822527D01*
X104123109Y-87750000D01*
X104123104Y-87750000D01*
X104000000Y-87725513D01*
X103876896Y-87750000D01*
X101578427Y-87750000D01*
X101132909Y-87304482D01*
X100397825Y-87000000D01*
X99602175Y-87000000D01*
X98867091Y-87304482D01*
X98304482Y-87867091D01*
X98000000Y-88602175D01*
X98000000Y-89397825D01*
X98304482Y-90132909D01*
X98867091Y-90695518D01*
X99602175Y-91000000D01*
X100397825Y-91000000D01*
X101132909Y-90695518D01*
X101578427Y-90250000D01*
X103482234Y-90250000D01*
X103489064Y-90256830D01*
X103558801Y-90361199D01*
X103972275Y-90637473D01*
X104336891Y-90710000D01*
X104336895Y-90710000D01*
X104459999Y-90734487D01*
X104583103Y-90710000D01*
X106336891Y-90710000D01*
X106460000Y-90734488D01*
X106583109Y-90710000D01*
X108458573Y-90710000D01*
X108393516Y-90807365D01*
X108335307Y-91100000D01*
X108335307Y-92900000D01*
X108393516Y-93192635D01*
X108559280Y-93440720D01*
X108750001Y-93568155D01*
X108750001Y-93776892D01*
X108725513Y-93900000D01*
X108750001Y-94023109D01*
X108822528Y-94387725D01*
X109098802Y-94801199D01*
X109203168Y-94870934D01*
X111229066Y-96896833D01*
X111298801Y-97001199D01*
X111712275Y-97277473D01*
X112076891Y-97350000D01*
X112076896Y-97350000D01*
X112200000Y-97374487D01*
X112323104Y-97350000D01*
X116992284Y-97350000D01*
X117395414Y-97753130D01*
X118112121Y-98050000D01*
X118887879Y-98050000D01*
X119604586Y-97753130D01*
X120153130Y-97204586D01*
X120250000Y-96970720D01*
X120250000Y-98882233D01*
X120082234Y-99050000D01*
X120007716Y-99050000D01*
X119604586Y-98646870D01*
X118887879Y-98350000D01*
X118112121Y-98350000D01*
X117395414Y-98646870D01*
X116846870Y-99195414D01*
X116550000Y-99912121D01*
X116550000Y-100687879D01*
X116846870Y-101404586D01*
X117395414Y-101953130D01*
X118112121Y-102250000D01*
X118318167Y-102250000D01*
X117839079Y-102462928D01*
X117810000Y-102480000D01*
X117410000Y-102780000D01*
X117393934Y-102793934D01*
X116793934Y-103393934D01*
X116772800Y-103420500D01*
X116272800Y-104220500D01*
X116260728Y-104244291D01*
X116060728Y-104744291D01*
X116054479Y-104763620D01*
X115854479Y-105563620D01*
X115850000Y-105600000D01*
X115850000Y-105906668D01*
X115848566Y-105907909D01*
X115822337Y-105960230D01*
X115818127Y-106018605D01*
X115918127Y-106818605D01*
X115921448Y-106836380D01*
X116021448Y-107236380D01*
X116027697Y-107255709D01*
X116227697Y-107755709D01*
X116232805Y-107767082D01*
X116432805Y-108167082D01*
X116446969Y-108190000D01*
X116746969Y-108590000D01*
X116760903Y-108606066D01*
X117329837Y-109175000D01*
X95704101Y-109175000D01*
X96173035Y-108706066D01*
X96194169Y-108679500D01*
X96694169Y-107879500D01*
X96706241Y-107855709D01*
X96906241Y-107355709D01*
X96912490Y-107336380D01*
X97112490Y-106536380D01*
X97116969Y-106500000D01*
X97116969Y-106193332D01*
X97118403Y-106192091D01*
X97144632Y-106139770D01*
X97148842Y-106081395D01*
X97048842Y-105281395D01*
X97045521Y-105263620D01*
X96945521Y-104863620D01*
X96939272Y-104844291D01*
X96739272Y-104344291D01*
X96734164Y-104332918D01*
X96534164Y-103932918D01*
X96520000Y-103910000D01*
X96220000Y-103510000D01*
X96206066Y-103493934D01*
X95606066Y-102893934D01*
X95590000Y-102880000D01*
X95190000Y-102580000D01*
X95167082Y-102565836D01*
X94567082Y-102265836D01*
X94541208Y-102255771D01*
X93841208Y-102055771D01*
X93814926Y-102050744D01*
X92814926Y-101950744D01*
X92770583Y-101952913D01*
X91770583Y-102152913D01*
X91739079Y-102162928D01*
X90839079Y-102562928D01*
X90810000Y-102580000D01*
X90410000Y-102880000D01*
X90393934Y-102893934D01*
X89825000Y-103462868D01*
X89825000Y-100392727D01*
X98890115Y-100392727D01*
X99024397Y-100683063D01*
X99742741Y-100928295D01*
X100500250Y-100879961D01*
X100975603Y-100683063D01*
X101109885Y-100392727D01*
X100000000Y-99282843D01*
X98890115Y-100392727D01*
X89825000Y-100392727D01*
X89825000Y-98742741D01*
X98071705Y-98742741D01*
X98120039Y-99500250D01*
X98316937Y-99975603D01*
X98607273Y-100109885D01*
X99717157Y-99000000D01*
X100282843Y-99000000D01*
X101392727Y-100109885D01*
X101683063Y-99975603D01*
X101928295Y-99257259D01*
X101879961Y-98499750D01*
X101683063Y-98024397D01*
X101392727Y-97890115D01*
X100282843Y-99000000D01*
X99717157Y-99000000D01*
X98607273Y-97890115D01*
X98316937Y-98024397D01*
X98071705Y-98742741D01*
X89825000Y-98742741D01*
X89825000Y-97607273D01*
X98890115Y-97607273D01*
X100000000Y-98717157D01*
X101109885Y-97607273D01*
X100975603Y-97316937D01*
X100257259Y-97071705D01*
X99499750Y-97120039D01*
X99024397Y-97316937D01*
X98890115Y-97607273D01*
X89825000Y-97607273D01*
X89825000Y-93602175D01*
X98000000Y-93602175D01*
X98000000Y-94397825D01*
X98304482Y-95132909D01*
X98867091Y-95695518D01*
X99602175Y-96000000D01*
X100397825Y-96000000D01*
X101132909Y-95695518D01*
X101578427Y-95250000D01*
X103182234Y-95250000D01*
X103848371Y-95916137D01*
X103811798Y-96100000D01*
X103963141Y-96860852D01*
X104394129Y-97505871D01*
X104550000Y-97610021D01*
X104550001Y-98789979D01*
X104394129Y-98894129D01*
X103963141Y-99539148D01*
X103811798Y-100300000D01*
X103963141Y-101060852D01*
X104394129Y-101705871D01*
X105039148Y-102136859D01*
X105607946Y-102250000D01*
X105992054Y-102250000D01*
X106560852Y-102136859D01*
X107205871Y-101705871D01*
X107636859Y-101060852D01*
X107788202Y-100300000D01*
X107636859Y-99539148D01*
X107205871Y-98894129D01*
X107050000Y-98789979D01*
X107050000Y-97610021D01*
X107205871Y-97505871D01*
X107636859Y-96860852D01*
X107788202Y-96100000D01*
X107636859Y-95339148D01*
X107205871Y-94694129D01*
X106560852Y-94263141D01*
X105992054Y-94150000D01*
X105617766Y-94150000D01*
X104670936Y-93203170D01*
X104601199Y-93098801D01*
X104187725Y-92822527D01*
X103823109Y-92750000D01*
X103823104Y-92750000D01*
X103700000Y-92725513D01*
X103576896Y-92750000D01*
X101578427Y-92750000D01*
X101132909Y-92304482D01*
X100397825Y-92000000D01*
X99602175Y-92000000D01*
X98867091Y-92304482D01*
X98304482Y-92867091D01*
X98000000Y-93602175D01*
X89825000Y-93602175D01*
X89825000Y-83892727D01*
X98890115Y-83892727D01*
X99024397Y-84183063D01*
X99742741Y-84428295D01*
X100500250Y-84379961D01*
X100975603Y-84183063D01*
X101109885Y-83892727D01*
X100000000Y-82782843D01*
X98890115Y-83892727D01*
X89825000Y-83892727D01*
X89825000Y-82242741D01*
X98071705Y-82242741D01*
X98120039Y-83000250D01*
X98316937Y-83475603D01*
X98607273Y-83609885D01*
X99717157Y-82500000D01*
X100282843Y-82500000D01*
X101392727Y-83609885D01*
X101683063Y-83475603D01*
X101928295Y-82757259D01*
X101879961Y-81999750D01*
X101683063Y-81524397D01*
X101392727Y-81390115D01*
X100282843Y-82500000D01*
X99717157Y-82500000D01*
X98607273Y-81390115D01*
X98316937Y-81524397D01*
X98071705Y-82242741D01*
X89825000Y-82242741D01*
X89825000Y-81107273D01*
X98890115Y-81107273D01*
X100000000Y-82217157D01*
X101109885Y-81107273D01*
X100975603Y-80816937D01*
X100257259Y-80571705D01*
X99499750Y-80620039D01*
X99024397Y-80816937D01*
X98890115Y-81107273D01*
X89825000Y-81107273D01*
X89825000Y-65602175D01*
X98000000Y-65602175D01*
X98000000Y-66397825D01*
X98304482Y-67132909D01*
X98867091Y-67695518D01*
X99602175Y-68000000D01*
X100397825Y-68000000D01*
X101132909Y-67695518D01*
X101578427Y-67250000D01*
X113482234Y-67250000D01*
X116290000Y-70057767D01*
X116290001Y-76520830D01*
X116270000Y-76550763D01*
X116250000Y-76520831D01*
X116250000Y-72123109D01*
X116274488Y-72000000D01*
X116177473Y-71512274D01*
X116074742Y-71358526D01*
X115901199Y-71098801D01*
X115796830Y-71029064D01*
X114970936Y-70203170D01*
X114901199Y-70098801D01*
X114487725Y-69822527D01*
X114123109Y-69750000D01*
X114123104Y-69750000D01*
X114000000Y-69725513D01*
X113876896Y-69750000D01*
X101578427Y-69750000D01*
X101132909Y-69304482D01*
X100397825Y-69000000D01*
X99602175Y-69000000D01*
X98867091Y-69304482D01*
X98304482Y-69867091D01*
X98000000Y-70602175D01*
X98000000Y-71397825D01*
X98304482Y-72132909D01*
X98867091Y-72695518D01*
X99602175Y-73000000D01*
X100397825Y-73000000D01*
X101132909Y-72695518D01*
X101578427Y-72250000D01*
X113482234Y-72250000D01*
X113750000Y-72517766D01*
X113750001Y-76520830D01*
X113539932Y-76835221D01*
X113450000Y-77287341D01*
X113450000Y-78392660D01*
X113539932Y-78844780D01*
X113882513Y-79357488D01*
X114395221Y-79700068D01*
X115000000Y-79820366D01*
X115604780Y-79700068D01*
X116117488Y-79357488D01*
X116270000Y-79129237D01*
X116422513Y-79357488D01*
X116935221Y-79700068D01*
X117540000Y-79820366D01*
X118144780Y-79700068D01*
X118657488Y-79357488D01*
X119000068Y-78844780D01*
X119090000Y-78392659D01*
X119090000Y-77287340D01*
X119000068Y-76835220D01*
X118790000Y-76520831D01*
X118790000Y-69663103D01*
X118814487Y-69539999D01*
X118790000Y-69416895D01*
X118790000Y-69416891D01*
X118717473Y-69052275D01*
X118441199Y-68638801D01*
X118336833Y-68569066D01*
X114970936Y-65203170D01*
X114901199Y-65098801D01*
X114487725Y-64822527D01*
X114123109Y-64750000D01*
X114123104Y-64750000D01*
X114000000Y-64725513D01*
X113876896Y-64750000D01*
X101578427Y-64750000D01*
X101132909Y-64304482D01*
X100397825Y-64000000D01*
X99602175Y-64000000D01*
X98867091Y-64304482D01*
X98304482Y-64867091D01*
X98000000Y-65602175D01*
X89825000Y-65602175D01*
X89825000Y-61670163D01*
X90360903Y-62206066D01*
X90376969Y-62220000D01*
X90776969Y-62520000D01*
X90799887Y-62534164D01*
X91399887Y-62834164D01*
X91425761Y-62844229D01*
X92125761Y-63044229D01*
X92152043Y-63049256D01*
X93152043Y-63149256D01*
X93196386Y-63147087D01*
X94196386Y-62947087D01*
X94227890Y-62937072D01*
X95127890Y-62537072D01*
X95156969Y-62520000D01*
X95556969Y-62220000D01*
X95573035Y-62206066D01*
X96173035Y-61606066D01*
X96194169Y-61579500D01*
X96694169Y-60779500D01*
X96706241Y-60755709D01*
X96906241Y-60255709D01*
X96912490Y-60236380D01*
X97112490Y-59436380D01*
X97116969Y-59400000D01*
X97116969Y-59093332D01*
X97118403Y-59092091D01*
X97144632Y-59039770D01*
X97148842Y-58981395D01*
X97048842Y-58181395D01*
X97045521Y-58163620D01*
X96945521Y-57763620D01*
X96939272Y-57744291D01*
X96739272Y-57244291D01*
X96734164Y-57232918D01*
X96534164Y-56832918D01*
X96520000Y-56810000D01*
X96220000Y-56410000D01*
X96206066Y-56393934D01*
X95637132Y-55825000D01*
X117362868Y-55825000D01*
X116793934Y-56393934D01*
G04 #@! TD*
M02*
